<?xml version="1.0" encoding="UTF-8"?>
<svg version="1.1" viewBox="0 0 1600 496" width="1280" height="1280" xmlns="http://www.w3.org/2000/svg">
<path transform="translate(173 48)" d="m0 0c5.46 3.18 10.9 6.33 16.4 9.49 2.16 1.24 4.31 2.49 6.46 3.73 4.45 2.57 8.9 5.13 13.4 7.7 19.2 11 19.2 11 28.6 16.6 0.679 0.4 1.36 0.8 2.06 1.21 2.91 1.71 5.81 3.43 8.7 5.17 5.27 3.14 10.6 6 16.1 8.68 10.2 4.97 19.8 10.8 29.5 16.6 5.3 3.12 10.6 6.19 16 9.26 1.61 0.929 1.61 0.929 3.26 1.88 8.58 4.94 17.2 9.85 25.8 14.8 8.46 4.83 16.9 9.68 25.4 14.6 1.05 0.608 2.11 1.22 3.2 1.84 4.97 2.87 9.94 5.74 14.9 8.63 1.75 1.02 3.5 2.04 5.26 3.05 2.18 1.27 4.36 2.54 6.54 3.81 5.98 3.47 12 6.67 18.3 9.64 7.28 3.89 18 11.3 20.7 19.5l2 1c0.667 2 1.33 4 2 6l2 2c1.89 3.27 2.92 6.71 4 10.3l1 3.3 1 3.39 1.1 3.13c4.34 18.7 1.15 38.4-8.89 54.6-3.31 4.89-7.01 9.13-11.2 13.3-0.953 0.951-0.953 0.951-1.93 1.92-7.08 6.63-15.7 10.9-24.3 15.1-9.79 4.82-19.1 10.5-28.5 16-5.38 3.16-10.8 6.29-16.2 9.41-1.08 0.621-2.15 1.24-3.26 1.88-8.64 4.98-17.3 9.85-26 14.7-5.77 3.22-11.5 6.49-17.2 9.85-30.9 18.3-30.9 18.3-46.2 26.1-11 5.64-21.6 11.8-32.3 18.1-5.31 3.12-10.6 6.19-16 9.26-1.07 0.619-2.15 1.24-3.25 1.88-4.42 2.55-8.85 5.1-13.3 7.65-15.9 9.13-15.9 9.13-31.7 18.4-0.997 0.585-0.997 0.585-2.02 1.18-3.44 2.02-6.85 4.07-10.2 6.16-20.2 12.4-41.3 17.8-64.8 12.5-11.5-3.23-22.1-9.02-30.9-17.2-0.63-0.563-1.26-1.13-1.91-1.71-9.14-8.58-15.3-19.6-19.1-31.5-0.878-2.96-0.878-2.96-2.96-5.8-0.251-2.44-0.251-2.44-0.252-5.41-0.00782-1.69-0.00782-1.69-0.0158-3.42 0.00446-1.25 0.00892-2.49 0.0135-3.78-0.00312-1.32-0.00624-2.64-0.00945-4-0.00838-3.67-0.00421-7.34 0.00197-11 0.00451-3.96-0.00245-7.91-0.00796-11.9-0.00891-7.76-0.00696-15.5-0.00117-23.3 0.00451-6.31 0.00513-12.6 0.00295-18.9-3.06e-4 -0.898-6.13e-4 -1.8-9.29e-4 -2.72-6.39e-4 -1.82-0.00129-3.65-0.00195-5.47-0.00571-17.1 8.62e-4 -34.2 0.0116-51.4 0.00892-14.7 0.0074-29.3-0.00184-44-0.0107-17-0.0149-34.1-0.00878-51.1 6.37e-4 -1.82 0.00127-3.64 0.00189-5.46 3.09e-4 -0.895 6.17e-4 -1.79 9.35e-4 -2.71 0.00172-6.29-0.00118-12.6-0.00589-18.9-0.00563-7.68-0.00405-15.4 0.00656-23.1 0.00523-3.92 0.00736-7.83 7.02e-4 -11.7-0.00602-3.59-0.00259-7.19 0.00796-10.8 0.00325-1.9-0.00319-3.79-0.0101-5.69 0.0807-17.9 3.19-32.9 14.3-47.3 0.51-0.748 1.02-1.5 1.55-2.27 9.92-14 27.8-24.4 44.6-27.3 31.3-3.29 52.1 9.25 78.4 24.6zm-138 363 1 4z" fill="#A775BC"/>
<path transform="translate(399,179)" d="m0 0c12.9 3.6 25.3 11.9 33 23 0.33 0.66 0.66 1.32 1 2 0.66 0.33 1.32 0.66 2 1 0.667 2 1.33 4 2 6 0.66 0.66 1.32 1.32 2 2 1.89 3.27 2.92 6.71 4 10.3 0.33 1.09 0.66 2.18 1 3.3 0.33 1.12 0.66 2.24 1 3.39 0.545 1.55 0.545 1.55 1.1 3.13 4.34 18.7 1.15 38.4-8.89 54.6-3.31 4.89-7.01 9.13-11.2 13.3-0.953 0.951-0.953 0.951-1.93 1.92-7.08 6.63-15.7 10.9-24.3 15.1-9.79 4.82-19.1 10.5-28.5 16-5.38 3.16-10.8 6.29-16.2 9.41-1.08 0.621-2.15 1.24-3.26 1.88-8.64 4.98-17.3 9.85-26 14.7-5.77 3.22-11.5 6.49-17.2 9.85-30.9 18.3-30.9 18.3-46.2 26.1-11 5.64-21.6 11.8-32.3 18.1-5.31 3.12-10.6 6.19-16 9.26-1.07 0.619-2.15 1.24-3.25 1.88-4.42 2.55-8.85 5.1-13.3 7.65-15.9 9.13-15.9 9.13-31.7 18.4-0.997 0.585-0.997 0.585-2.02 1.18-3.44 2.02-6.85 4.07-10.2 6.16-20.2 12.4-41.3 17.8-64.8 12.5-11.5-3.23-22.1-9.02-30.9-17.2l-1.91-1.71c-9.14-8.58-15.3-19.6-19.1-31.5-0.878-2.96-0.878-2.96-2.96-5.8-0.194-2.51-0.273-4.9-0.259-7.41-0.0035-0.752-0.00701-1.5-0.0106-2.28-0.00881-2.49-0.00297-4.97 0.00378-7.46-0.00135-1.73-0.00329-3.46-0.0058-5.19-0.00295-3.63 0.00134-7.26 0.0107-10.9 0.0114-4.64 0.00485-9.29-0.00714-13.9-0.00724-3.57-0.00492-7.15 2.56e-4 -10.7 0.00133-1.71-2.93e-4 -3.42-0.00496-5.13-0.0051-2.4 0.0027-4.8 0.0138-7.19-0.00405-0.703-0.0081-1.41-0.0123-2.13 0.0363-4.25 0.722-7.71 2.27-11.7 2 3 2 3 2 5h2c1.46 2.65 2 3.89 2 7 0.959 0.402 0.959 0.402 1.94 0.812 2.06 1.19 2.06 1.19 3.06 4.19 6.26 6.6 14.4 12.9 23 16v2c1.03 0.144 2.06 0.289 3.12 0.438 2.25 0.327 4.5 0.678 6.74 1.09 3.12 0.469 6.04 0.585 9.19 0.569 1.11-0.00322 2.22-0.00645 3.36-0.00977 1.14-0.00838 2.28-0.0168 3.46-0.0254 1.17-0.00451 2.33-0.00902 3.53-0.0137 2.86-0.0117 5.73-0.0282 8.59-0.0488v-2c0.641-0.17 1.28-0.34 1.94-0.516 4.27-1.2 8.18-2.37 12-4.67 3.06-1.81 3.06-1.81 6.06-1.81 0.33-0.99 0.66-1.98 1-3 2.6-1.65 3.86-2 7-2v-2c2.5-3.26 5.99-4.59 9.62-6.31 4.99-2.41 9.55-5.04 14.1-8.22 3.63-2.34 7.5-4.15 11.4-6.05 7.03-3.45 13.7-7.49 20.4-11.6 7.1-4.27 14.3-8.32 21.6-12.4 4.78-2.68 9.39-5.47 13.9-8.52 2-1.01 4-2.01 6-3 2.42-1.39 4.8-2.85 7.19-4.31 4.35-2.64 8.7-5.22 13.2-7.62 4.84-2.6 9.58-5.34 14.3-8.12 0.701-0.412 1.4-0.824 2.12-1.25 4.16-2.46 8.27-4.98 12.4-7.57 4.01-2.44 8.3-4.38 12.5-6.4 0.906-0.441 1.81-0.882 2.75-1.34 0.844-0.405 1.69-0.81 2.56-1.23 2.16-0.989 2.16-0.989 3-3.15 1.98-1.05 3.97-2.05 6-3-1.51-4.3-4.29-5.69-8.12-7.94-1.17-0.696-2.35-1.39-3.52-2.09-1.11-0.651-2.21-1.3-3.36-1.97-1.61-0.994-3.21-1.99-4.81-3-1.05-0.66-2.1-1.32-3.19-2 0.66-0.33 1.32-0.66 2-1 0.33-0.66 0.66-1.32 1-2 0.33 0.99 0.66 1.98 1 3 1.65 0.33 3.3 0.66 5 1v2c4.97-0.412 9.45-0.796 14-3 0.433 0.495 0.866 0.99 1.31 1.5 1.68 1.83 1.68 1.83 4.69 1.5 0.33-1.32 0.66-2.64 1-4h2v-3h5c-0.66 0.66-1.32 1.32-2 2 1.66 0.382 3.32 0.714 5 1 0.33-0.33 0.66-0.66 1-1 2-0.0408 4-0.0425 6 0v-4h3c0.33 1.98 0.66 3.96 1 6h5v-2h7v2c6.09 0.195 11.3 0.299 17-2h3v2c1.75-0.0174 1.75-0.0174 3.54-0.0352 1.55-0.00938 3.1-0.0185 4.64-0.0273 0.769-0.00838 1.54-0.0168 2.33-0.0254 4-0.0171 7.56 0.236 11.5 1.09 2.82-0.887 3.74-1.56 5.25-4.12 0.371-0.928 0.371-0.928 0.75-1.88 0.928 0.0619 1.86 0.124 2.81 0.188 3.17 0.121 3.17 0.121 5.06-1.69 0.371-0.495 0.743-0.99 1.12-1.5 0.66 0.33 1.32 0.66 2 1 0.33-0.99 0.66-1.98 1-3 1.49-0.495 1.49-0.495 3-1 0.33-0.66 0.66-1.32 1-2 0.66 0.33 1.32 0.66 2 1v-3c3.96 0.495 3.96 0.495 8 1-0.33-1.32-0.66-2.64-1-4h-6c1.98-0.99 1.98-0.99 4-2-0.663-6.06-0.663-6.06-2-12h-6v-8c0.639-0.268 1.28-0.536 1.94-0.812 2.39-1.07 2.39-1.07 3.06-4.19-1.65-0.33-3.3-0.66-5-1v-2c-0.562-0.276-1.12-0.552-1.7-0.836-2.38-1.21-4.71-2.49-7.05-3.79-0.799-0.446-1.6-0.892-2.42-1.35-0.603-0.338-1.21-0.675-1.83-1.02v-1zm-364 232 1 4z" fill="#9E7DC9"/>
<path transform="translate(36,331)" d="m0 0c2 3 2 3 2 5h2c1.46 2.65 2 3.89 2 7 0.639 0.268 1.28 0.536 1.94 0.812 2.06 1.19 2.06 1.19 3.06 4.19 6.26 6.6 14.4 12.9 23 16v2c1.03 0.144 2.06 0.289 3.12 0.438 2.25 0.327 4.5 0.678 6.74 1.09 3.12 0.469 6.04 0.585 9.19 0.569 1.11-0.00322 2.22-0.00645 3.36-0.00977 1.71-0.0126 1.71-0.0126 3.46-0.0254 1.17-0.00451 2.33-0.00902 3.53-0.0137 2.86-0.0117 5.73-0.0282 8.59-0.0488v-2c0.961-0.255 0.961-0.255 1.94-0.516 4.27-1.2 8.18-2.37 12-4.67 3.06-1.81 3.06-1.81 6.06-1.81 0.495-1.49 0.495-1.49 1-3 2.6-1.65 3.86-2 7-2v-2c2.51-3.3 6.22-4.76 9.88-6.5 4.99-2.39 4.99-2.39 9.74-5.24 2.91-1.54 4.47-1.42 7.7-0.949 0.883 0.12 1.77 0.24 2.68 0.363 0.664 0.107 1.33 0.214 2.01 0.324 0.553 2.08 1 3.84 1 6 1.11-0.309 1.11-0.309 2.25-0.625 3.07-0.419 4.18 0.00551 6.75 1.62-1.32 0.66-2.64 1.32-4 2 0.638 0.049 1.28 0.098 1.93 0.148 0.826 0.0748 1.65 0.15 2.5 0.227 0.824 0.0696 1.65 0.139 2.5 0.211 0.682 0.137 1.36 0.273 2.07 0.414 0.33 0.66 0.66 1.32 1 2-0.33 0.66-0.66 1.32-1 2 0.99-0.33 1.98-0.66 3-1 3.4 0.901 5.5 1.5 8 4h4c0.33 1.98 0.66 3.96 1 6 2.97 0.495 2.97 0.495 6 1 0.33 0.99 0.66 1.98 1 3-0.33 0.66-0.66 1.32-1 2h5c0.33 1.65 0.66 3.3 1 5h6c0.33 0.99 0.66 1.98 1 3 2.31 0.33 4.62 0.66 7 1v15h7c0.688 1.56 0.688 1.56 1 4-0.985 2.34-1.98 4.67-3 7 0.33 0.99 0.66 1.98 1 3h2c0.33 0.99 0.66 1.98 1 3-3.32 3.54-6.47 6.1-10.7 8.46-1.11 0.629-2.23 1.26-3.38 1.91-1.2 0.669-2.41 1.34-3.61 2.01-1.25 0.704-2.5 1.41-3.75 2.11-2.58 1.45-5.16 2.91-7.74 4.35-5.86 3.3-11.7 6.66-17.5 10-1.62 0.935-1.62 0.935-3.27 1.89-6.05 3.49-12.1 7.01-18.1 10.5-0.665 0.39-1.33 0.78-2.02 1.18-3.44 2.02-6.85 4.07-10.2 6.16-20.2 12.4-41.3 17.8-64.8 12.5-11.5-3.23-22.1-9.02-30.9-17.2-0.63-0.563-1.26-1.13-1.91-1.71-9.14-8.58-15.3-19.6-19.1-31.5-0.878-2.96-0.878-2.96-2.96-5.8-0.194-2.51-0.273-4.9-0.259-7.41-0.0035-0.752-0.00701-1.5-0.0106-2.28-0.00881-2.49-0.00297-4.97 0.00378-7.46-0.00135-1.73-0.00329-3.46-0.0058-5.19-0.00295-3.63 0.00134-7.26 0.0107-10.9 0.0114-4.64 0.00485-9.29-0.00714-13.9-0.00724-3.57-0.00492-7.15 2.56e-4 -10.7 0.00133-1.71-2.93e-4 -3.42-0.00496-5.13-0.0051-2.4 0.0027-4.8 0.0138-7.19-0.00405-0.703-0.0081-1.41-0.0123-2.13 0.0363-4.25 0.722-7.71 2.27-11.7zm-1 80 1 4z" fill="#CD6088"/>
<path transform="translate(36,170)" d="m0 0c1.99 2.99 2.94 5.6 4 9h3v2h2c0.33-0.66 0.66-1.32 1-2 0.99 1.49 0.99 1.49 2 3h3c0.33-0.66 0.66-1.32 1-2 3.9 0 5.54 0.479 9 2 2.66 1.08 5.28 2.09 8 3 0.33-0.66 0.66-1.32 1-2 0.66 1.65 1.32 3.3 2 5 1.32-0.33 2.64-0.66 4-1v2c0.675-0.0722 1.35-0.144 2.05-0.219 1.34-0.139 1.34-0.139 2.7-0.281 0.882-0.0928 1.76-0.186 2.67-0.281 2.58-0.219 2.58-0.219 6.58-0.219-0.66-0.66-1.32-1.32-2-2h11c0.495 1.98 0.495 1.98 1 4 2.31 0.33 4.62 0.66 7 1v-4c0.578-0.124 1.16-0.248 1.75-0.375 2.29-0.543 2.29-0.543 4.31-1.75 1.94-0.875 1.94-0.875 4.94 0.125v-2c0.598-0.289 1.2-0.577 1.81-0.875 2.38-1.17 2.38-1.17 5.19-3.12 0.495 1.49 0.495 1.49 1 3 0.33-0.33 0.66-0.66 1-1 3.06-0.161 5.06 0.0185 8 1v2c0.99-0.33 1.98-0.66 3-1 0.33 55.4 0.66 111 1 168-0.99 0.33-1.98 0.66-3 1v2c-1.13 0.454-2.27 0.908-3.44 1.38-3.61 1.2-3.61 1.2-4.56 3.62-2.4 1.29-4.78 2.48-7.25 3.62-0.669 0.325-1.34 0.65-2.03 0.984-3.71 1.74-6.53 2.83-10.7 2.39v2c-11.3 3.77-26.9 1.53-38-2v-2l-2.19-0.293c-3.22-0.809-5.14-2.07-7.81-4.02-0.869-0.632-1.74-1.26-2.63-1.91-10.5-7.88-10.5-7.88-13.4-13.8-0.66-0.33-1.32-0.66-2-1-0.731-2.31-1.4-4.65-2-7h-2c-2.81-2.25-3-2.99-3.68-6.75-0.539-6.73-0.451-13.5-0.433-20.2 2.83e-4 -1.5 1.23e-4 -3-4.43e-4 -4.5-2.85e-4 -4.04 0.00557-8.09 0.0126-12.1 0.00628-4.24 0.00684-8.47 0.00803-12.7 0.0031-8.01 0.0113-16 0.0213-24 0.0112-9.12 0.0167-18.2 0.0217-27.4 0.0104-18.8 0.028-37.5 0.0503-56.3h2v-2z" fill="#8D7BCA"/>
<path transform="translate(173 48)" d="m0 0c3.57 2.08 7.16 4.14 10.7 6.2 1.19 0.681 2.37 1.36 3.56 2.04 2.25 1.29 4.5 2.58 6.75 3.87 14.2 8.17 14.2 8.17 15.5 11.9h-24v2c-1.28 0.29-1.28 0.29-2.59 0.586-1.1 0.26-2.21 0.521-3.35 0.789-1.65 0.383-1.65 0.383-3.34 0.773-0.898 0.281-1.8 0.562-2.72 0.852-0.33 0.66-0.66 1.32-1 2-5.42 3-5.42 3-8 3v2c-0.681 0.371-1.36 0.743-2.06 1.12-3.51 2.24-5.69 4.92-8.29 8.13-1.65 1.74-1.65 1.74-4.65 2.74-0.681 1.89-0.681 1.89-1 4-0.495 1.48-0.495 1.48-1 3h-2c-0.99 3.96-1.98 7.92-3 12h-2c0.00524 1.12 0.0105 2.23 0.0159 3.38 0.018 4.12 0.0296 8.25 0.0391 12.4 0.00504 1.79 0.0119 3.58 0.0205 5.36 0.0121 2.56 0.0178 5.13 0.0222 7.69 0.00516 0.804 0.0103 1.61 0.0156 2.44 1.96e-4 1.92-0.0513 3.84-0.113 5.75-0.33 0.33-0.66 0.66-1 1-0.0484 2.21-0.0366 4.42 0 6.62 0.084 7.83-0.38 15.6-1 23.4-4.08 0-7.12-0.807-11-2l-1 2c-0.66-0.66-1.32-1.32-2-2-0.66 0.66-1.32 1.32-2 2h-4v2c-1.7 0.186-1.7 0.186-3.44 0.375-1.18 0.206-2.35 0.412-3.56 0.625l-1 2c-0.99-0.33-1.98-0.66-3-1v4c-2.31-0.33-4.62-0.66-7-1l-1-4c-1.98 0.33-3.96 0.66-6 1l1 2h-18v-2l-4 2c-0.588-0.959-0.588-0.959-1.19-1.94-2.26-2.57-3.49-2.59-6.81-3.06-0.846-0.351-1.69-0.701-2.56-1.06-3.75-1.44-7.29-0.896-11.2-0.438-0.799 0.0928-1.6 0.186-2.42 0.281-0.603 0.0722-1.21 0.144-1.83 0.219l-1-2h-2v-2h-2l-1 4-0.875-3.25c-0.853-2.84-1.69-5.19-3.12-7.75h-1c-0.723-5.2-1.13-10.2-1.15-15.5-0.00336-0.7-0.00672-1.4-0.0102-2.12-0.00942-2.29-0.0114-4.58-0.0125-6.88-0.00322-1.61-0.00658-3.23-0.0101-4.84-0.00597-3.38-0.00784-6.75-0.00725-10.1 1.01e-4 -4.29-0.0135-8.58-0.0308-12.9-0.0112-3.33-0.0131-6.67-0.0126-10-0.00117-1.58-0.00551-3.16-0.0133-4.74-0.0869-19.4 2.05-36.1 14.2-51.9 0.51-0.748 1.02-1.5 1.55-2.27 9.92-14 27.8-24.4 44.6-27.3 31.2-3.29 52 9.22 78.3 24.6z" fill="#CC6190"/>
<path transform="translate(1266,175)" d="m0 0c6.58-0.229 13.2-0.386 19.8-0.494 2.24-0.0452 4.48-0.107 6.72-0.185 3.22-0.109 6.44-0.16 9.67-0.2 0.997-0.0465 1.99-0.0929 3.02-0.141 6.8-0.00491 6.8-0.00491 9.72 2.86 1.58 2.32 2.87 4.65 4.12 7.16 0.641 1.09 1.28 2.18 1.94 3.3 0.556 1.02 1.11 2.03 1.69 3.08 0.636 1.16 1.27 2.31 1.93 3.5 0.669 1.23 1.34 2.45 2.01 3.68 0.704 1.28 1.41 2.57 2.11 3.85 2.11 3.86 4.22 7.72 6.32 11.6 0.615 1.13 1.23 2.25 1.86 3.42 6.8 12.5 13.5 25 20.1 37.6 1.59-3.18 1.34-6.65 1.5-10.2 0.0403-0.836 0.0807-1.67 0.122-2.53 0.131-2.75 0.255-5.5 0.378-8.25 0.0877-1.89 0.175-3.78 0.263-5.68 0.795-17.5 1.3-34.9 1.74-52.4h36c-0.546 12.9-1.19 25.7-1.94 38.5-0.0425 0.732-0.085 1.46-0.129 2.22-0.398 6.86-0.8 13.7-1.2 20.6-0.267 4.53-0.53 9.05-0.792 13.6-0.0637 1.1-0.0637 1.1-0.129 2.22-0.632 11-1.14 21.9-1.47 32.9-0.154 4.75-0.383 9.31-1.34 14-39.3 3.85-39.3 3.85-49.3-1.9-4.95-5.25-7.12-11.8-9.37-18.5-2.11-5.68-5.23-10.7-8.34-15.9-1.73-2.9-3.4-5.85-5.06-8.79-0.651-1.14-1.3-2.29-1.97-3.47-3.67-6.47-7.33-12.9-11-19.4-0.497-0.884-0.995-1.77-1.51-2.68-0.432-0.77-0.865-1.54-1.31-2.33-0.992-1.71-2.07-3.36-3.17-5.01-1.21 26-2.29 52-3 78h-36c0-10.1 0-10.1 0.244-13.5 0.0537-0.776 0.107-1.55 0.163-2.35 0.0593-0.814 0.119-1.63 0.18-2.47 0.127-1.82 0.253-3.64 0.379-5.46 0.0669-0.947 0.134-1.89 0.203-2.87 2.28-32.4 3.96-64.8 4.83-97.3z"/>
<path transform="translate(208,69)" d="m0 0c8.06 4.34 16 8.85 23.9 13.4 1.63 0.945 1.63 0.945 3.3 1.91 8.72 5.04 8.72 5.04 13 7.56 5.26 3.1 10.5 6.04 16 8.66 10.2 4.95 19.8 10.8 29.5 16.6 5.3 3.12 10.6 6.19 16 9.26 1.61 0.929 1.61 0.929 3.26 1.88 7.4 4.26 14.8 8.51 22.2 12.7 3.49 1.99 6.98 3.99 10.5 5.98 2.99 1.71 5.98 3.42 8.97 5.12 3.59 2.05 7.17 4.1 10.8 6.15 1.09 0.62 2.18 1.24 3.3 1.88 1.01 0.581 2.03 1.16 3.07 1.76 0.885 0.506 1.77 1.01 2.68 1.53 2.68 1.68 5.08 3.56 7.51 5.58-0.784-0.165-1.57-0.33-2.38-0.5-2.51-0.562-2.51-0.562-4.62-0.5-1.67-0.318-3.34-0.65-5-1v-2c-0.969-0.248-1.94-0.495-2.94-0.75-3.04-0.85-5.78-2.01-8.62-3.38-3.63-1.68-6.38-2.29-10.4-1.88v2c-1.46-0.256-2.92-0.53-4.38-0.812-1.22-0.226-1.22-0.226-2.46-0.457-2.16-0.73-2.16-0.73-4.16-3.73-2.43-1.17-2.43-1.17-5.25-2.06-0.981-0.336-1.96-0.673-2.97-1.02-0.917-0.303-1.83-0.606-2.78-0.918-1.22-0.412-2.43-0.825-3.69-1.25-1.14-0.371-1.14-0.371-2.31-0.75 0.33 1.98 0.66 3.96 1 6-0.99-0.33-1.98-0.66-3-1-0.99 0.33-1.98 0.66-3 1h-3v-2c-3.63-0.33-7.26-0.66-11-1-0.33-0.99-0.66-1.98-1-3-0.99 0.66-1.98 1.32-3 2v2c-7.92-0.33-15.8-0.66-24-1 0.66-0.33 1.32-0.66 2-1-1.65-0.66-3.3-1.32-5-2v3c-9.18 1.11-17.8 0.815-27 0v6c-3.47 0.495-3.47 0.495-7 1-0.0928 1.18-0.0928 1.18-0.188 2.38-0.402 1.3-0.402 1.3-0.812 2.62-2.56 1.31-2.56 1.31-5 2-0.66-0.66-1.32-1.32-2-2 3-2 3-2 6-2-1.65-0.33-3.3-0.66-5-1v-2c-1.65 0.33-3.3 0.66-5 1 0.217-0.804 0.217-0.804 0.438-1.62 0.657-2.77 1.11-5.56 1.56-8.38-3.55 1.4-3.55 1.4-7 3-2.37 0.0712-4.75 0.0841-7.12 0.0625-1.28-0.00902-2.56-0.018-3.88-0.0273-0.987-0.0116-1.97-0.0232-2.99-0.0352-0.33 0.66-0.66 1.32-1 2h-3v-3h-6c-0.495 1.98-0.495 1.98-1 4-3.3-0.33-6.6-0.66-10-1v6h-6c0.495 4.95 0.495 4.95 1 10-6.01-1.72-10.5-3.81-15.6-7.39-6.73-4.55-14.2-8.06-21.5-11.5-1.9-1.08-1.9-1.08-2.9-3.08-0.0971-1.85-0.131-3.71-0.133-5.57-0.00129-1.13-0.00258-2.25-0.00391-3.41 0.00387-1.18 0.00773-2.37 0.0117-3.58l-0.0117-3.5c0.00727-6.4 0.284-12.6 1.14-18.9h2c0.124-1.05 0.248-2.1 0.375-3.19 0.536-3.27 1.26-5.82 2.62-8.81h2c0.144-0.598 0.289-1.2 0.438-1.81 1.22-4.76 2.92-6.88 6.56-10.2 0.722-0.351 1.44-0.701 2.19-1.06 2-0.807 2-0.807 2.81-3 1-1.94 1-1.94 3.12-2.69 0.928-0.124 0.928-0.124 1.88-0.25v-2c2.91-2.04 4.4-3 8-3 0.33-0.99 0.66-1.98 1-3 4.31-1.34 7.48-2 12-2v-2c7.59-0.33 15.2-0.66 23-1v-2z" fill="#8C7AC7"/>
<path transform="translate(1204,178)" d="m0 0c0.677 0.231 1.35 0.461 2.05 0.699 14.8 5.19 25.8 14.1 32.9 28.3 6.31 14.7 7.97 33.9 3.1 49.3-4.19 10.4-8.99 18.9-17.1 26.7-0.637 0.646-1.27 1.29-1.93 1.96-8.93 8.5-20.3 12.2-32.1 15-0.906 0.227-1.81 0.454-2.75 0.688-22.6 4.73-49.7 1.81-69.3-10.8-12.7-8.54-21.1-20.1-24.5-35.2-2.41-19.2-0.952-38.3 10.8-54.4 8.98-11.3 20.1-18 33.8-22.3 1.87-0.592 1.87-0.592 3.77-1.2 19.2-5.42 42.3-5.42 61.2 1.2zm-61 34c-8.15 10.3-11.4 20.9-10 34 1.64 8.03 4.51 14.8 11 20 10 6.18 20.4 9.81 32.1 7.35 9.65-2.64 17.8-6.51 23.3-15.1 5.83-10.9 7.53-22.5 3.94-34.5-3.72-10.1-9.85-16.1-19.3-20.9-14.1-5.68-30.7-1.44-41.1 9.17z"/>
<path transform="translate(191 192)" d="m0 0c4.14 2.51 8.37 4.85 12.6 7.24 7.51 4.28 15 8.64 22.3 13.1 5.07 3.04 10.2 5.92 15.4 8.67 0.929 0.492 1.86 0.985 2.82 1.49 1.91 1.01 3.82 2.01 5.73 3 7.64 4.08 16.1 8.82 19.3 17.3 1.8 7.12 1.53 12.9-2.06 19.5-4.29 6.87-10.6 9.99-18 13h-2c-0.495 1.49-0.495 1.49-1 3-1.81 0.958-3.63 1.9-5.49 2.77-3.97 1.95-7.73 4.25-11.5 6.5-2.59 1.52-5.2 2.98-7.84 4.42-2.54 1.39-4.9 2.83-7.31 4.44-2.86 1.9-5.73 3.36-8.81 4.88-5.55 2.99-11 6.13-16.5 9.25-0.624 0.353-1.25 0.707-1.89 1.07-2.98 1.59-2.98 1.59-5.61 3.68-2.6 0.154-5.15 0.232-7.75 0.25-1.08 0.0309-1.08 0.0309-2.17 0.0625-4.62 0.0339-7.38-0.562-11.1-3.31-0.62-0.402-1.24-0.804-1.88-1.22-5.57-4.24-7.6-9.04-9.12-15.8-0.704-6.59-0.516-13.2-0.461-19.9 0.00239-1.92 0.00329-3.84 0.00278-5.75 0.00311-4 0.0196-8 0.0465-12 0.0341-5.12 0.0416-10.2 0.0401-15.3 5.45e-4 -3.95 0.0115-7.91 0.026-11.9 0.00634-1.89 0.0103-3.77 0.0118-5.66 0.00436-2.64 0.0219-5.27 0.0432-7.91-9.06e-4 -0.771-0.00181-1.54-0.00275-2.34 0.0563-4.79 0.807-8.72 2.29-13.3 0.153-0.71 0.307-1.42 0.465-2.15 1.84-6.96 7.57-10.4 13.5-13.8 9.73-3.37 17.8 1.72 25.9 6.7z" fill="#C7649B"/>
<path transform="translate(1026,184)" d="m0 0c7.38 8.12 8.57 17.3 8.32 28-0.417 7.43-2.92 14.8-8.32 20-5.99 5.26-12.8 8.63-20 12 1.95 6.29 4.34 12.2 7.16 18.2 0.391 0.836 0.781 1.67 1.18 2.53 1.65 3.54 3.32 7.07 4.98 10.6 1.22 2.6 2.44 5.2 3.65 7.8 0.561 1.18 0.561 1.18 1.13 2.39 0.351 0.751 0.701 1.5 1.06 2.28 0.459 0.975 0.459 0.975 0.928 1.97 1.2 3 2.01 6.15 2.9 9.26h-42c-2.63-7.95-2.63-7.95-5.31-16.1-4.61-13.9-9.38-27.7-14.4-41.5-0.435-1.21-0.871-2.41-1.32-3.65-0.384-1.05-0.769-2.11-1.17-3.19-0.819-2.61-0.819-2.61-0.819-5.61 0.678 0.0232 1.36 0.0464 2.05 0.0703 9.41 0.182 18.2-0.354 25.9-6.07 2.22-3.47 3.8-6.86 4-11-1.48-4.51-2.75-7.68-7-10-3.39-1.09-6.53-1.12-10.1-1.1-1.74 0.00483-1.74 0.00483-3.52 0.00977-1.81 0.0126-1.81 0.0126-3.66 0.0254-1.83 0.00677-1.83 0.00677-3.7 0.0137-3.02 0.0118-6.03 0.0282-9.05 0.0488-1.67 32.7-2.89 65.3-4 98h-39c0.454-4.89 0.908-9.78 1.38-14.8 3.19-36.3 4.01-72.7 4.62-109 88.8-2.29 88.8-2.29 104 9z"/>
<path transform="translate(814 175)" d="m0 0c0.85 0.00222 1.7 0.00444 2.58 0.00673 1.44 1.13e-4 1.44 1.13e-4 2.91 2.29e-4 1.57 0.00774 1.57 0.00774 3.17 0.0156 1.06 0.00141 2.13 0.00283 3.22 0.00429 3.41 0.00562 6.83 0.0182 10.2 0.0309 2.31 0.00501 4.62 0.00958 6.92 0.0137 5.67 0.0111 11.3 0.0278 17 0.0488 5.28 14.2 10.5 28.4 15.6 42.6 6.68 18.6 13.6 37.1 20.7 55.5 1.04 2.7 2.07 5.4 3.1 8.1 0.733 1.91 1.47 3.82 2.21 5.73 0.439 1.15 0.879 2.3 1.33 3.48 0.391 1.01 0.782 2.03 1.18 3.07 0.835 2.54 0.835 2.54 0.835 5.54h-41c-2.53-6.74-4.9-13.5-7.19-20.3-0.368-1.08-0.736-2.17-1.12-3.28-0.347-1.04-0.695-2.07-1.05-3.14-0.316-0.939-0.632-1.88-0.958-2.84-0.687-2.42-0.687-2.42-0.687-5.42h-48c-0.66 1.98-1.32 3.96-2 6-0.972 2.24-1.98 4.46-3 6.68-0.425 0.916-0.425 0.916-0.859 1.85-0.594 1.28-1.19 2.56-1.79 3.83-0.917 1.96-1.83 3.93-2.74 5.89-4.47 9.61-4.47 9.61-5.61 10.7-1.35 0.0927-2.71 0.117-4.06 0.114-0.861-7.55e-5 -1.72-1.51e-4 -2.61-2.29e-4 -0.935-0.00516-1.87-0.0103-2.83-0.0156-0.953-0.00141-1.91-0.00283-2.89-0.00429-3.06-0.00562-6.11-0.0182-9.17-0.0309-2.07-0.00501-4.13-0.00958-6.2-0.0137-5.08-0.0111-10.2-0.0283-15.2-0.0488 1.36-3.57 2.94-6.89 4.76-10.2 0.539-0.994 1.08-1.99 1.63-3.01 0.859-1.57 0.859-1.57 1.73-3.18 0.59-1.09 1.18-2.17 1.79-3.29 2.96-5.44 5.97-10.9 9.09-16.2 4.23-7.31 8.06-14.8 11.9-22.3 3.64-7.04 7.37-14 11.2-21 7.56-13.8 15-27.6 21.9-41.8 1.52-2.95 1.52-2.95 3.97-3.1zm19.1 28.1c-0.601 1.33-0.601 1.33-1.21 2.68-3.7 8.09-7.64 16-11.9 23.8-2.25 4.04-2.25 4.04-2.85 8.55h28c1.34-2.13 1.34-2.13 0.135-5.15-0.45-1.34-0.908-2.68-1.37-4.01-0.241-0.705-0.482-1.41-0.73-2.14-0.512-1.49-1.03-2.98-1.55-4.47-0.795-2.29-1.57-4.58-2.35-6.87-0.498-1.45-0.998-2.89-1.5-4.34-0.233-0.689-0.467-1.38-0.707-2.09-1.09-3.67-1.09-3.67-3.93-5.94z"/>
<path transform="translate(399,179)" d="m0 0c12.9 3.6 25.3 11.9 33 23 0.33 0.66 0.66 1.32 1 2 0.66 0.33 1.32 0.66 2 1 0.667 2 1.33 4 2 6 0.66 0.66 1.32 1.32 2 2 1.89 3.27 2.92 6.71 4 10.3 0.33 1.09 0.66 2.18 1 3.3 0.33 1.12 0.66 2.24 1 3.39 0.364 1.03 0.727 2.07 1.1 3.13 4.34 18.7 1.15 38.4-8.89 54.6-3.31 4.89-7.01 9.13-11.2 13.3-0.636 0.634-1.27 1.27-1.93 1.92-7.08 6.63-15.7 10.9-24.3 15.1-9.9 4.87-19.3 10.6-28.8 16.2-2.75 1.63-5.5 3.25-8.26 4.86-3.89 2.29-7.79 4.58-11.7 6.87-0.33-0.66-0.66-1.32-1-2 0.843-2.16 1.78-4.28 2.75-6.38 7.73-17.4 8-32.6 1.16-50.5-1.57-4.35-1.57-4.35-4.91-7.16-1.01-1.66-2.01-3.33-3-5-2.23-3-3.87-4.91-7-7v-2c-1.05-0.371-1.05-0.371-2.12-0.75-3.24-1.41-5.95-3.28-8.88-5.25-0.99-0.33-1.98-0.66-3-1-0.33-0.66-0.66-1.32-1-2-2.24-1.06-2.24-1.06-4.88-2-3.06-1.14-5.38-2.17-8.12-4v-2c-0.531-0.0877-1.06-0.175-1.61-0.266-3.24-0.996-5.77-2.68-8.64-4.48-0.572-0.358-1.14-0.717-1.73-1.09-1.67-1.05-3.35-2.11-5.02-3.16-1.6-1-3.21-2-4.81-3-1.05-0.66-2.1-1.32-3.19-2l2-1c0.33-0.66 0.66-1.32 1-2 0.33 0.99 0.66 1.98 1 3 1.65 0.33 3.3 0.66 5 1v2c4.97-0.412 9.45-0.796 14-3 0.433 0.495 0.866 0.99 1.31 1.5 1.68 1.83 1.68 1.83 4.69 1.5 0.33-1.32 0.66-2.64 1-4h2v-3h5c-0.66 0.66-1.32 1.32-2 2 1.66 0.382 3.32 0.714 5 1 0.33-0.33 0.66-0.66 1-1 2-0.0408 4-0.0425 6 0v-4h3c0.495 2.97 0.495 2.97 1 6h5v-2h7v2c6.09 0.195 11.3 0.299 17-2h3v2c1.75-0.0174 1.75-0.0174 3.54-0.0352 1.55-0.00938 3.1-0.0185 4.64-0.0273 0.769-0.00838 1.54-0.0168 2.33-0.0254 4-0.0171 7.56 0.236 11.5 1.09 2.82-0.887 3.74-1.56 5.25-4.12 0.371-0.928 0.371-0.928 0.75-1.88 0.928 0.0619 1.86 0.124 2.81 0.188 3.17 0.121 3.17 0.121 5.06-1.69 0.371-0.495 0.743-0.99 1.12-1.5 0.66 0.33 1.32 0.66 2 1 0.33-0.99 0.66-1.98 1-3 0.99-0.33 1.98-0.66 3-1l1-2c0.66 0.33 1.32 0.66 2 1v-3c2.64 0.33 5.28 0.66 8 1-0.33-1.32-0.66-2.64-1-4h-6c1.98-0.99 1.98-0.99 4-2-0.663-6.06-0.663-6.06-2-12h-6v-8c0.639-0.268 1.28-0.536 1.94-0.812 2.39-1.07 2.39-1.07 3.06-4.19-1.65-0.33-3.3-0.66-5-1v-2c-0.562-0.276-1.12-0.552-1.7-0.836-2.38-1.21-4.71-2.49-7.05-3.79-0.799-0.446-1.6-0.892-2.42-1.35-0.603-0.338-1.21-0.675-1.83-1.02v-1z" fill="#B967A5"/>
<path transform="translate(1420,175)" d="m0 0h103c-1 20-1 20-2 27h-62c-0.33 6.6-0.66 13.2-1 20h53c-0.66 8.91-1.32 17.8-2 27h-53v11c-0.13 2.07-0.286 4.13-0.5 6.19-0.139 1.38-0.139 1.38-0.281 2.79-0.0722 0.666-0.144 1.33-0.219 2.02 1.3-0.0303 2.61-0.0606 3.95-0.0918 4.92-0.114 9.84-0.225 14.8-0.335 2.11-0.0478 4.23-0.0963 6.34-0.146 12.6-0.294 25.3-0.505 37.9-0.427-0.138 4.46-0.287 8.92-0.438 13.4-0.0393 1.27-0.0786 2.54-0.119 3.85-0.0419 1.21-0.0838 2.42-0.127 3.67-0.0367 1.12-0.0733 2.24-0.111 3.4-0.205 2.71-0.205 2.71-1.21 4.71h-102c1.09-21.9 1.09-21.9 1.94-31 1.01-11.8 1.59-23.6 2.12-35.4 0.0401-0.86 0.0802-1.72 0.122-2.61 0.847-18.3 1.29-36.7 1.82-55z"/>
<path transform="translate(588 174)" d="m0 0c2.15 0.0106 4.29 1.12e-4 6.44-0.0127 9.36-0.00806 18.4 0.798 27.6 2.27 0.337 4.04 0.669 8.08 1 12.1 0.0954 1.14 0.191 2.28 0.289 3.46 0.0902 1.11 0.18 2.22 0.273 3.36 0.0838 1.02 0.168 2.03 0.254 3.08 0.185 3 0.215 5.97 0.184 8.98-1.03-0.29-1.03-0.29-2.09-0.586-2.97-0.822-5.94-1.62-8.91-2.41-0.74-0.213-1.48-0.425-2.24-0.645-8.07-2.12-17.8-3.1-25.6 0.27-3.34 2.08-3.34 2.08-4.44 5.25 0.548 6.86 5.58 10.6 10.5 14.9 2.59 2.13 5.22 4.19 7.88 6.24 23.6 18.2 23.6 18.2 25.7 34 0.431 8.55-2.2 16.4-7.46 23.1-9.12 9.99-21.9 14.4-35.2 15.1-11.8 0.371-23.5 0.0262-35.2-1.02-0.892-0.0782-1.78-0.156-2.7-0.237-2.09-0.217-4.16-0.541-6.23-0.888-1.3-2.6-1.32-4.77-1.54-7.67-0.131-1.71-0.131-1.71-0.264-3.45-0.087-1.2-0.174-2.39-0.264-3.62-0.0909-1.18-0.182-2.36-0.275-3.58-0.392-5.24-0.713-10.4-0.662-15.7 1.02 0.338 2.03 0.675 3.08 1.02 14.1 4.61 29.6 9.55 43.9 2.98 2.23-2.77 2.23-2.77 2.06-5.69-3.37-10.5-15.8-18.2-24.1-25-15.2-12.5-15.2-12.5-18-20.3-0.249-0.629-0.498-1.26-0.754-1.91-2.69-8.25-1.2-16.8 2.38-24.5 5.28-9.57 12.9-13.9 23.2-17.2 6.95-1.86 14-1.73 21.2-1.69z"/>
<path transform="translate(139,152)" d="m0 0c6.27 0.203 11.1 3.65 16.4 6.75 0.908 0.526 1.81 1.05 2.75 1.59 4.1 2.39 8.16 4.82 12.2 7.36 3.15 1.98 6.35 3.69 9.71 5.3 4.23 2.08 8.24 4.28 12.2 6.85 1.78 1.14 3.58 2.18 5.43 3.21 3.38 1.94 3.38 1.94 6.12 3.81 3.59 2.35 7.29 4.36 11.1 6.37 2.66 1.48 5.26 3.01 7.86 4.59 5.26 3.18 10.6 6.08 16.1 8.98 7.69 4.14 15.1 8.48 22.4 13.3 2.88 1.85 5.81 3.32 8.88 4.84 2.73 1.54 5.43 3.15 8.12 4.75 1.51 0.896 3.03 1.79 4.54 2.69 0.738 0.437 1.48 0.874 2.24 1.32 2.86 1.68 5.73 3.33 8.6 4.99 3.58 2.09 7.13 4.21 10.6 6.44 0.704 0.447 1.41 0.895 2.13 1.36 1.96 1.64 2.77 3.11 3.74 5.46-3.62 3-3.62 3-7 3-0.33 0.99-0.66 1.98-1 3-1.9 1.18-1.9 1.18-4.38 2.31-9.91 4.65-19.3 10.2-28.8 15.8-6.24 3.66-12.5 7.29-18.8 10.8-3.23 1.81-6.39 3.73-9.56 5.65-4.66 2.83-9.36 5.55-14.1 8.19-14.4 7.99-28.8 16.2-42.7 25.1-3.51 2.22-7.16 4.05-10.9 5.84-5.7 2.88-11.2 6.04-16.7 9.34-0.81 0.485-1.62 0.969-2.46 1.47-1.67 0.999-3.33 2.01-4.98 3.02-1.21 0.715-1.21 0.715-2.44 1.45-0.718 0.434-1.44 0.869-2.18 1.32-2.49 0.99-3.54 0.556-6.06-0.183-0.0233-25.4-0.041-50.8-0.0518-76.2-0.00516-11.8-0.0122-23.6-0.0236-35.4-0.00994-10.3-0.0164-20.6-0.0186-30.8-0.00131-5.45-0.0044-10.9-0.0116-16.3-0.00676-5.12-0.00889-10.2-0.00738-15.4-2.76e-4 -1.88-0.00228-3.77-0.0061-5.65-0.00493-2.56-0.00379-5.12-0.00105-7.68-0.00291-0.756-0.00583-1.51-0.00883-2.29 0.015-5.12 0.015-5.12 1.13-6.23zm23 35c-0.767 0.431-1.53 0.861-2.32 1.3-5.37 3.47-7.27 6.29-8.68 12.6-0.335 2.04-0.669 4.08-1 6.12-0.33 0.33-0.66 0.66-1 1-0.122 2.64-0.179 5.26-0.193 7.91-0.00818 0.829-0.0164 1.66-0.0248 2.51-0.0249 2.76-0.0414 5.52-0.0558 8.28-0.00532 0.944-0.0106 1.89-0.0161 2.86-0.0268 5.01-0.0461 10-0.0605 15-0.0166 5.15-0.0613 10.3-0.112 15.4-0.0338 3.97-0.0452 7.95-0.0509 11.9-0.00668 1.9-0.0218 3.79-0.0459 5.69-0.312 17-0.312 17 7.67 31.7 6.3 5.88 12.4 6.37 20.8 6.17 5.11-0.369 8.42-2.5 12.5-5.53 3.76-2.74 7.84-4.6 12-6.59 2.45-1.27 4.45-2.69 6.63-4.36 1.25-0.657 2.53-1.28 3.81-1.88 2.77-1.34 5.22-2.78 7.69-4.62 2.93-2.17 5.9-3.76 9.18-5.33 3.97-2.01 7.76-4.32 11.6-6.59 2.22-1.28 4.43-2.48 6.73-3.59v-2c0.557-0.147 1.11-0.294 1.69-0.445 9.2-2.7 15.3-7.38 20.3-15.6 1.92-6.19 1.54-12.6-0.759-18.6-4.25-8.06-13.6-12.6-21.4-16.6-1.9-1-3.8-2.01-5.7-3.02-0.896-0.471-1.79-0.942-2.72-1.43-5.95-3.16-11.7-6.63-17.5-10.1-6.37-3.75-12.8-7.46-19.2-11.1-2.87-1.63-5.68-3.33-8.48-5.06-0.829-0.502-1.66-1-2.51-1.52-1.62-0.979-3.23-1.97-4.82-2.98-7.89-4.73-15.7-6.4-23.9-1.59z" fill="#F6F8FC"/>
<path transform="translate(638,175)" d="m0 0h117c0 9.16-0.266 17.9-1 27-8.95 0.0667-17.9-0.123-26.8-0.5-1.77-0.0715-1.77-0.0715-3.58-0.145-2.87-0.116-5.74-0.235-8.61-0.355-0.0606 1.28-0.121 2.55-0.184 3.87-0.0846 1.78-0.169 3.56-0.254 5.34-0.0451 0.949-0.0902 1.9-0.137 2.88-0.264 5.55-0.532 11.1-0.803 16.7-1.12 23.1-2.02 46.2-2.62 69.3h-40c0-6.66 0.042-13.1 0.586-19.7 0.127-1.65 0.253-3.29 0.38-4.94 0.0669-0.856 0.134-1.71 0.203-2.59 1.83-23.6 2.9-47.2 3.83-70.8-0.55 0.03-1.1 0.0599-1.67 0.0908-19.9 1.08-19.9 1.08-29.1 0.972-0.816-0.00451-1.63-0.00902-2.47-0.0137-1.93-0.0113-3.85-0.0292-5.78-0.0488-0.0273-2.81-0.047-5.62-0.0625-8.44-0.00838-0.783-0.0168-1.57-0.0254-2.37-0.00322-0.783-0.00645-1.57-0.00977-2.37-0.00524-0.707-0.0105-1.41-0.0159-2.14 0.166-3.91 0.682-7.79 1.11-11.7z"/>
<path transform="translate(137,220)" d="m0 0h1c0.33 43.2 0.66 86.5 1 131-0.99 0.33-1.98 0.66-3 1v2c-1.13 0.454-2.27 0.908-3.44 1.38-3.61 1.2-3.61 1.2-4.56 3.62-2.4 1.29-4.78 2.48-7.25 3.62-0.669 0.325-1.34 0.65-2.03 0.984-3.71 1.74-6.53 2.83-10.7 2.39v2c-11.3 3.77-26.9 1.53-38-2v-2l-2.19-0.293c-3.22-0.809-5.14-2.07-7.81-4.02-0.869-0.632-1.74-1.26-2.63-1.91-10.5-7.88-10.5-7.88-13.4-13.8-0.66-0.33-1.32-0.66-2-1-0.731-2.31-1.4-4.65-2-7h-2c-1.96-1.54-2.88-2.56-3.55-4.98-0.48-5.21-0.299-9.85 0.547-15 0.33 0.99 0.66 1.98 1 3h2c-0.0206-0.908-0.0412-1.82-0.0625-2.75 0.0523-2.72 0.292-4.68 1.06-7.25 0.186-0.742 0.371-1.49 0.562-2.25 0.144-0.577 0.289-1.15 0.438-1.75h6c-0.195-0.705-0.389-1.41-0.59-2.14-0.478-3.34 0.0588-5.46 1.03-8.68 0.287-0.976 0.575-1.95 0.871-2.96 0.228-0.736 0.456-1.47 0.691-2.23 2.97 0.33 5.94 0.66 9 1 1.47 3.43 2.25 6.27 3 10h13c-0.33-1.65-0.66-3.3-1-5 0.99-0.33 1.98-0.66 3-1 0.33 0.99 0.66 1.98 1 3-0.66 0.99-1.32 1.98-2 3 0.743-0.186 1.48-0.371 2.25-0.562 2.75-0.438 2.75-0.438 4.53 0.0312 2.87 0.686 5.53 0.626 8.47 0.594 1.08-0.00902 2.16-0.018 3.27-0.0273 0.82-0.0116 1.64-0.0232 2.48-0.0352 0.33 0.66 0.66 1.32 1 2h-2c0.33 0.99 0.66 1.98 1 3h9v-6c2.75 0.0601 5.5 0.147 8.25 0.25 1.17 0.0213 1.17 0.0213 2.36 0.043 3.78 0.162 5.82 0.286 8.94 2.57 1.45 2.14 1.45 2.14 1.45 5.14 0.66 0.33 1.32 0.66 2 1h-2c0.66 1.98 1.32 3.96 2 6l1-4h5c0.217-1.21 0.217-1.21 0.438-2.44 0.562-2.56 0.562-2.56 1.56-3.56 0.25-2.99 0.431-5.95 0.562-8.94 0.0432-0.942 0.0864-1.88 0.131-2.85 0.335-8.13 0.337-16.2 0.287-24.4-0.0573-16 0.529-31.9 1.02-47.8z" fill="#7272C4"/>
<path transform="translate(211,310)" d="m0 0c0.495 1.49 0.495 1.49 1 3 0.99 0.33 1.98 0.66 3 1 0.34 0.99 0.34 0.99 0.688 2 1.11 2.18 1.11 2.18 3.21 2.48 2.03 0.242 4.06 0.384 6.1 0.516-0.99 0.66-1.98 1.32-3 2 1.83 1.13 1.83 1.13 4 2 0.99-0.33 1.98-0.66 3-1 2.16-0.0949 4.33-0.13 6.5-0.125 1.14-0.00258 2.29-0.00516 3.47-0.00781 3.03 0.133 3.03 0.133 6.03 1.13 1.5 0.274 3 0.545 4.5 0.812 3.09 0.669 4.24 0.94 6.56 3.19 0.938 2 0.938 2 0.938 4 1.84 0.772 1.84 0.772 4 1 1.77-1.35 1.77-1.35 3-3 0.743 0.619 1.49 1.24 2.25 1.88 2.24 1.73 4.19 2.99 6.75 4.12-0.0326 2.02-0.0651 4.04-0.0977 6.05-0.0288 2.03-0.0288 2.03 1.1 3.95h-2c0.66 0.99 1.32 1.98 2 3 0.125 2.69 0.125 2.69 0 5h-2c0.195 1.95 0.195 1.95 1 4 1.32 0.684 2.66 1.35 4 2 1.25 2.12 1.25 2.12 2 4 0.66-0.33 1.32-0.66 2-1v2c1.65-0.33 3.3-0.66 5-1v6h-5c0.33 0.99 0.66 1.98 1 3-0.276 2.01-0.602 4.01-1 6h-3c0.99 1.65 1.98 3.3 3 5 0.33-0.66 0.66-1.32 1-2v3h-2c-0.216 0.596-0.433 1.19-0.656 1.81-1.81 2.96-3.75 3.76-6.85 5.3-1.13 0.568-2.25 1.14-3.41 1.72-0.894 0.442-0.894 0.442-1.81 0.892-3.08 1.52-6.14 3.08-9.21 4.64-0.607 0.308-1.21 0.617-1.84 0.934-7.62 3.89-14.9 8.24-22.2 12.7-0.66-1.32-1.32-2.64-2-4h-3c0.33-0.66 0.66-1.32 1-2-0.33-0.99-0.66-1.98-1-3 0.985-2.34 1.98-4.67 3-7-0.33-0.66-0.66-1.32-1-2-3.03-0.658-3.03-0.658-6-1-1.21-5.23-0.756-9.77 0-15-1.49 0.495-1.49 0.495-3 1-2.69-0.938-2.69-0.938-5-2v-2c-2.97-0.495-2.97-0.495-6-1-0.33-1.65-0.66-3.3-1-5h-5v-5c-2.97-0.495-2.97-0.495-6-1l-1-6c-1.11 0.34-1.11 0.34-2.25 0.688-3.52 0.399-4.05-0.561-6.75-2.69-3.15-0.72-3.15-0.72-6-1v-3c-2.97-0.66-5.94-1.32-9-2 0.33-0.66 0.66-1.32 1-2-2.22-1.3-2.22-1.3-6-1-0.33-1.65-0.66-3.3-1-5-2.64-0.33-5.28-0.66-8-1 1.04-2.89 1.84-3.9 4.5-5.53 1.01-0.465 2.02-0.931 3.06-1.41 1.09-0.518 2.18-1.04 3.3-1.57 1.04-0.492 2.07-0.985 3.14-1.49 9.27-4.83 18.2-10.4 27.1-15.9 0.88-0.544 1.76-1.09 2.67-1.65 0.758-0.476 1.52-0.951 2.3-1.44 1.95-0.996 1.95-0.996 4.95-0.996z" fill="#B46FB4"/>
<path transform="translate(320,149)" d="m0 0c3.9 1.26 7.77 2.62 11.6 4 0.92 0.33 1.84 0.66 2.79 1 6.31 2.44 6.31 2.44 7.59 5 1.98 0.727 3.98 1.4 6 2v-2c4.41-1.03 6.93-1.04 11 1-0.33 0.66-0.66 1.32-1 2-0.99 0.33-1.98 0.66-3 1 1.28 4.99 3.17 7.58 7 11-0.33 0.66-0.66 1.32-1 2h2c-0.33 2.31-0.66 4.62-1 7-2.97 0.495-2.97 0.495-6 1v3h-2v-2c-0.763 0.0206-1.53 0.0412-2.31 0.0625-2.69-0.0625-2.69-0.0625-5.69-1.06-0.33 1.32-0.66 2.64-1 4h-2v2c-0.557-0.144-1.11-0.289-1.69-0.438-2.43-0.59-4.86-1.09-7.31-1.56v-3c-0.99-0.33-1.98-0.66-3-1-0.33 1.32-0.66 2.64-1 4-2.48 0.495-2.48 0.495-5 1-0.66-0.99-1.32-1.98-2-3-2.36-0.44-2.36-0.44-5-0.312-1.33 0.0058-1.33 0.0058-2.69 0.0117-2.51 0.0868-2.51 0.0868-4.31 2.3 0.66 0.66 1.32 1.32 2 2-3.21 1.61-6.44 1.06-10 1 0.99-0.66 1.98-1.32 3-2-5.05-0.938-5.05-0.938-10 0-0.33-0.66-0.66-1.32-1-2-5.08-0.113-5.08-0.113-10 1-2.01-0.276-4.01-0.602-6-1l2 4c-3.38 0.625-3.38 0.625-7 1-0.66-0.66-1.32-1.32-2-2 0.33-0.33 0.66-0.66 1-1h-6c-0.33 0.99-0.66 1.98-1 3v-3c-2.46-0.167-4.92-0.334-7.38-0.5-0.699-0.0477-1.4-0.0954-2.12-0.145-3.75-0.262-3.75-0.262-7.51-0.355 0.66 0.66 1.32 1.32 2 2-0.99 0.99-1.98 1.98-3 3-6.75-1.75-6.75-1.75-9-4-2.67-0.243-2.67-0.243-5.62-0.125-1 0.018-2.01 0.0361-3.04 0.0547-1.16 0.0348-1.16 0.0348-2.34 0.0703v3c-2.57 1.58-4.29 2.16-7.27 1.5-3-1.01-5.9-2.08-8.73-3.5v-2c-2.86-1.28-2.86-1.28-5.19-0.297-4.37 0.461-7.16-1.73-10.8-3.95-0.699-0.409-1.4-0.817-2.12-1.24-2.92-1.72-5.82-3.47-8.71-5.25-2.21-1.38-2.21-1.38-4.99-2.27-2.19-2-2.19-2-2.5-4.64 0-2.8 0.0989-5.57 0.312-8.36 1.65-0.33 3.3-0.66 5-1 0.33-1.65 0.66-3.3 1-5h10c0.33-0.99 0.66-1.98 1-3 1.94-0.75 1.94-0.75 4-1 0.66 0.33 1.32 0.66 2 1v3c0.33-0.66 0.66-1.32 1-2 5.29-0.962 10.3-1.05 15.7-0.84 2.56-0.179 4.06-0.944 6.3-2.16h2c0.25 6.62 0.25 6.62-2 10 1.65-0.33 3.3-0.66 5-1v2c1.65-0.66 3.3-1.32 5-2v3c-1.98 0.99-1.98 0.99-4 2 0.33 0.33 0.66 0.66 1 1 0.66-0.66 1.32-1.32 2-2 0.66 0.33 1.32 0.66 2 1 0.0619-0.784 0.124-1.57 0.188-2.38 0.812-2.62 0.812-2.62 3.25-4 2.56-0.625 2.56-0.625 4.56 0.375v-6h27v-3h5v2c1.88 0.0909 1.88 0.0909 3.8 0.184 1.65 0.0844 3.3 0.169 4.95 0.254 1.24 0.059 1.24 0.059 2.5 0.119 0.799 0.0419 1.6 0.0838 2.42 0.127 0.733 0.0367 1.47 0.0733 2.22 0.111 2.12 0.206 4.06 0.637 6.11 1.21-0.495-1.49-0.495-1.49-1-3 1.88-0.625 1.88-0.625 4-1 0.99 0.99 0.99 0.99 2 2 2.57 0.342 5.1 0.442 7.69 0.559 0.763 0.146 1.53 0.291 2.31 0.441 0.99 1.49 0.99 1.49 2 3 0.66-0.66 1.32-1.32 2-2 2.12 0.375 2.12 0.375 4 1-0.99-0.99-1.98-1.98-3-3 0.99-0.99 1.98-1.98 3-3z" fill="#9D7DC9"/>
<path transform="translate(163 339)" d="m0 0c0.883 0.12 1.77 0.24 2.68 0.363 0.664 0.107 1.33 0.214 2.01 0.324 0.553 2.08 1 3.84 1 6 1.11-0.309 1.11-0.309 2.25-0.625 3.07-0.419 4.18 0.00551 6.75 1.62l-4 2c0.638 0.049 1.28 0.098 1.93 0.148 0.826 0.0748 1.65 0.15 2.5 0.227 0.824 0.0696 1.65 0.139 2.5 0.211 1.02 0.205 1.02 0.205 2.07 0.414 0.495 0.99 0.495 0.99 1 2-0.33 0.66-0.66 1.32-1 2 0.99-0.33 1.98-0.66 3-1 3.4 0.901 5.5 1.5 8 4h4c0.495 2.97 0.495 2.97 1 6 1.98 0.33 3.96 0.66 6 1 0.495 1.49 0.495 1.49 1 3-0.33 0.66-0.66 1.32-1 2h5c0.495 2.48 0.495 2.48 1 5h6c0.33 0.99 0.66 1.98 1 3 2.31 0.33 4.62 0.66 7 1v15h7c0.688 1.56 0.688 1.56 1 4-0.985 2.34-1.98 4.67-3 7 0.33 0.99 0.66 1.98 1 3h2c0.33 0.99 0.66 1.98 1 3-3.48 3.73-6.85 6.32-11.3 8.81-0.593 0.336-1.19 0.672-1.8 1.02-1.88 1.06-3.77 2.12-5.66 3.17-1.25 0.705-2.5 1.41-3.75 2.12-2.4 1.36-4.81 2.71-7.23 4.05-2.02 1.14-4.04 2.29-6.03 3.48-1.18 0.7-1.18 0.7-2.38 1.41-0.66 0.403-1.32 0.807-2 1.22-2.33 0.895-3.55 0.531-5.86-0.285v-2c-0.33 0.33-0.66 0.66-1 1v1h-7l1-4h-3c-0.228-2.05-0.456-4.1-0.684-6.15-0.135-1.86-0.135-1.86-1.32-2.85-0.454-0.495-0.907-0.99-1.38-1.5-1.66-1.74-1.66-1.74-4.62-2.5 2.47-0.495 2.47-0.495 5-1-0.33-0.99-0.66-1.98-1-3-1.7-0.186-1.7-0.186-3.44-0.375-1.76-0.309-1.76-0.309-3.56-0.625-0.33-0.66-0.66-1.32-1-2-0.99-0.495-0.99-0.495-2-1 0.99-0.66 1.98-1.32 3-2-0.536-0.103-1.07-0.206-1.62-0.312-3.13-0.905-5.61-1.94-8.38-3.69-1.19-2.94-1.19-2.94-2-6-0.976-1.35-1.97-2.69-3-4v-2c-1.49-0.495-1.49-0.495-3-1v-2c-0.66-0.33-1.32-0.66-2-1-1.62-1.25-1.62-1.25-3-3-0.188-2.69-0.188-2.69 0-5-1.32-0.66-2.64-1.32-4-2v-2h-8c0.66-0.66 1.32-1.32 2-2-1.29-1.38-2.63-2.71-4-4h-2c-0.66-1.32-1.32-2.64-2-4 0.66-0.99 1.32-1.98 2-3h-3c-0.66-0.99-1.32-1.98-2-3 1.65-0.33 3.3-0.66 5-1 0.33-0.99 0.66-1.98 1-3 2.6-1.65 3.86-2 7-2v-2c2.51-3.3 6.22-4.76 9.88-6.5 4.99-2.39 4.99-2.39 9.74-5.24 2.91-1.54 4.47-1.42 7.7-0.949z" fill="#C7649B"/>
<path transform="translate(139,120)" d="m0 0c1.09 3.53 1.13 6.8 1.13 10.5 0.00129 1.25 0.00258 2.49 0.00391 3.78-0.00387 1.3-0.00773 2.59-0.0117 3.93 0.00387 1.31 0.00773 2.62 0.0117 3.97-0.00129 1.24-0.00258 2.48-0.00391 3.76-0.00113 1.14-0.00226 2.28-0.00342 3.46-0.129 2.62-0.129 2.62-1.13 3.62-0.0484 2.21-0.0366 4.42 0 6.62 0.084 7.83-0.38 15.6-1 23.4-4.08 0-7.12-0.807-11-2l-1 2c-0.66-0.66-1.32-1.32-2-2-0.99 0.99-0.99 0.99-2 2h-4v2c-1.7 0.186-1.7 0.186-3.44 0.375-1.76 0.309-1.76 0.309-3.56 0.625-0.33 0.66-0.66 1.32-1 2l-3-1v4c-2.31-0.33-4.62-0.66-7-1-0.33-1.32-0.66-2.64-1-4-2.97 0.495-2.97 0.495-6 1l1 2h-18v-2c-1.98 0.99-1.98 0.99-4 2-0.588-0.959-0.588-0.959-1.19-1.94-2.26-2.57-3.49-2.59-6.81-3.06-0.846-0.351-1.69-0.701-2.56-1.06-3.75-1.44-7.29-0.896-11.2-0.438-0.799 0.0928-1.6 0.186-2.42 0.281-0.905 0.108-0.905 0.108-1.83 0.219-0.33-0.66-0.66-1.32-1-2h-2v-2h-2c-0.33 1.32-0.66 2.64-1 4-0.289-1.07-0.578-2.15-0.875-3.25-0.853-2.84-1.69-5.19-3.12-7.75h-1c-0.827-5.75-1.14-11.3-1.1-17.1 0.00141-0.832 0.00283-1.66 0.00429-2.52 0.00555-2.63 0.0181-5.26 0.0309-7.88 0.00502-1.79 0.00958-3.59 0.0137-5.38 0.011-4.37 0.0282-8.74 0.0488-13.1 0.99-0.33 1.98-0.66 3-1 0.33 2.97 0.66 5.94 1 9h3v4c0.66-0.33 1.32-0.66 2-1 0.33-0.99 0.66-1.98 1-3 0.66 0.33 1.32 0.66 2 1v-2c-0.66-0.66-1.32-1.32-2-2 0.887 0.0206 1.77 0.0412 2.69 0.0625 3.19 0.0703 3.19 0.0703 5.69-0.688 3.72-0.532 7.17 0.131 10.6 1.62 0.99 1.49 0.99 1.49 2 3 0.66-0.99 1.32-1.98 2-3 1.05 0.186 2.1 0.371 3.19 0.562 3.39 0.389 5.58 0.388 8.81-0.562 0.33-0.33 0.66-0.66 1-1 0.66-0.33 1.32-0.66 2-1 0.66 0.66 1.32 1.32 2 2-0.33 0.33-0.66 0.66-1 1 3.05 1.01 3.05 1.01 6 0 2.01 0.301 4 0.644 6 1 3.33 0.373 6.66 0.69 10 1v2h3c0.33-0.66 0.66-1.32 1-2v2h2v-2c0.743-0.144 1.48-0.289 2.25-0.438 4.99-1.02 7.93-2.31 12.2-5.25 2.94-1.5 3.56-1.24 6.56-0.312l2-2c-0.495-0.99-0.495-0.99-1-2 0.619-0.0825 1.24-0.165 1.88-0.25 2.31-0.563 2.31-0.563 3.38-2.81 0.371-0.959 0.371-0.959 0.75-1.94z" fill="#BB68A6"/>
<path transform="translate(208,69)" d="m0 0c8.06 4.34 16 8.85 23.9 13.4 1.63 0.945 1.63 0.945 3.3 1.91 8.74 5.05 8.74 5.05 13 7.55 5.45 3.21 10.9 6.26 16.6 8.98 8.02 3.91 15.6 8.42 23.2 13.1l-2 1c-2.09-0.911-4.01-1.9-6-3-0.937-0.508-1.87-1.02-2.84-1.54-2.72-1.48-5.44-2.97-8.16-4.46-0.99 0.99-0.99 0.99-2 2-0.66-0.66-1.32-1.32-2-2h-3.5-3.5c-0.66-0.66-1.32-1.32-2-2-2.81 0.0174-2.81 0.0174-5.94 0.438-5.76 0.664-5.76 0.664-9.06-0.438-1.87-0.044-3.75-0.0396-5.62 0-1.79 0.0376-3.58 0.0467-5.38 0-1-1-1-1-1.06-4.06 0.0206-0.969 0.0412-1.94 0.0625-2.94-1.65 0.33-3.3 0.66-5 1 0.99 3.46 0.99 3.46 2 7-3.07 0.943-5.39 0.997-8.56 0.562-2.54-0.339-4.86-0.562-7.44-0.562-0.99 2.97-0.99 2.97-2 6-1.11-0.186-2.23-0.371-3.38-0.562-3.45-0.754-3.45-0.754-5.62 0.562-0.33-1.65-0.66-3.3-1-5h-3c0.33 0.99 0.66 1.98 1 3-6.75 1.12-6.75 1.12-9 0v13c-3.91 0-5.12-1.51-8-4 0.495 2.47 0.495 2.47 1 5-1.14-0.0928-1.14-0.0928-2.31-0.188-3.17 0.221-3.67 0.884-5.69 3.19h-2c-0.66 2.31-1.32 4.62-2 7-0.33-0.66-0.66-1.32-1-2h-2v3h3c-0.33 0.66-0.66 1.32-1 2-0.66-0.33-1.32-0.66-2-1-0.42 2.2-0.81 4.41-1.19 6.62l-0.668 3.73c-0.166 4.18 0.82 6.07 2.86 9.65 0.188 3.38 0.188 3.38 0 6-4.46 1.15-6.96 1.36-11.1-0.836-1.4-0.827-2.79-1.67-4.17-2.54-1.4-0.843-2.8-1.68-4.2-2.52-0.61-0.378-1.22-0.756-1.85-1.15-1.85-1.11-1.85-1.11-4.7-1.96-1.32-2.63-1.13-4.62-1.13-7.57-0.00129-1.13-0.00258-2.25-0.00391-3.41 0.00387-1.18 0.00773-2.37 0.0117-3.58l-0.0117-3.5c0.00727-6.4 0.284-12.6 1.14-18.9h2c0.124-1.05 0.248-2.1 0.375-3.19 0.536-3.27 1.26-5.82 2.62-8.81h2c0.144-0.598 0.289-1.2 0.438-1.81 1.22-4.76 2.92-6.88 6.56-10.2 0.722-0.351 1.44-0.701 2.19-1.06 2-0.807 2-0.807 2.81-3 1-1.94 1-1.94 3.12-2.69 0.928-0.124 0.928-0.124 1.88-0.25v-2c2.91-2.04 4.4-3 8-3 0.33-0.99 0.66-1.98 1-3 4.31-1.34 7.48-2 12-2v-2c7.59-0.33 15.2-0.66 23-1v-2z" fill="#6F6FC0"/>
<path transform="translate(34,356)" d="m0 0c1.32 0.33 2.64 0.66 4 1 0.66 2.64 1.32 5.28 2 8v-4h3c-0.33 0.66-0.66 1.32-1 2 0.598-0.227 1.2-0.454 1.81-0.688 1.08-0.155 1.08-0.155 2.19-0.312 0.474 0.495 0.949 0.99 1.44 1.5 0.516 0.495 1.03 0.99 1.56 1.5 2.43-0.352 2.43-0.352 5-1 2.69 0.438 2.69 0.438 5 1h2c4 4.47 4 4.47 4 7 0.66 0.66 1.32 1.32 2 2l-1 1c0.495 1.49 0.495 1.49 1 3h-3c-0.66 0.99-1.32 1.98-2 3 0.351 0.598 0.701 1.2 1.06 1.81 0.938 2.19 0.938 2.19-0.0625 5.19-0.33-0.66-0.66-1.32-1-2-1.98 0.66-3.96 1.32-6 2 1.32 0.33 2.64 0.66 4 1 1.1 4.41 1.08 8.48 1 13-2.48 0.495-2.48 0.495-5 1v9c0.33-0.99 0.66-1.98 1-3 0.99-0.495 0.99-0.495 2-1-0.33-0.66-0.66-1.32-1-2 1.46 0.309 2.92 0.622 4.38 0.938 0.812 0.174 1.62 0.348 2.46 0.527 2.16 0.535 2.16 0.535 4.16 1.54-0.33 1.65-0.66 3.3-1 5 0.99 0.495 0.99 0.495 2 1l1-2v2c3.63 0.151 3.63 0.151 7-1 0.33 0.99 0.66 1.98 1 3l1.56 1.56c0.474 0.474 0.949 0.949 1.44 1.44v2h6c2 5.75 2 5.75 2 8 1.65 0.33 3.3 0.66 5 1 0.33 0.99 0.66 1.98 1 3 0.99 0.99 0.99 0.99 2 2 0.27 2.69 0.0874 5.29 0 8h2c-0.495-3.96-0.495-3.96-1-8h2v8c2.07 1.22 2.07 1.22 5 1h5c0.33 0.99 0.66 1.98 1 3-1.98 0.99-1.98 0.99-4 2v2h-2v2h3.31 6.69c0.33 1.98 0.66 3.96 1 6 1.98 0.33 3.96 0.66 6 1v2h5c0.268 0.804 0.536 1.61 0.812 2.44 0.588 1.27 0.588 1.27 1.19 2.56 1.49 0.495 1.49 0.495 3 1-1.52 0.486-3.04 0.963-4.56 1.44-0.847 0.267-1.69 0.534-2.57 0.809-19.9 5.23-40.4 0.908-57.9-9.25-3.6-2.42-6.83-5.04-10-8-0.63-0.563-1.26-1.13-1.91-1.71-9.14-8.58-15.3-19.6-19.1-31.5-0.878-2.96-0.878-2.96-2.96-5.8-0.241-2.6-0.241-2.6-0.227-5.76 1.51e-4 -1.18 3.02e-4 -2.36 4.58e-4 -3.58 0.0103-1.28 0.0206-2.55 0.0313-3.86 0.00283-1.31 0.00566-2.61 0.00858-3.96 0.00763-3.47 0.0273-6.93 0.0494-10.4 0.0205-3.54 0.0296-7.08 0.0397-10.6 0.0214-6.94 0.0556-13.9 0.0977-20.8zm1 55 1 4z" fill="#CC5E7F"/>
<path transform="translate(404,190)" d="m0 0c1.36 0.278 1.36 0.278 2.75 0.562 3 0.404 4.45 0.307 7.25-0.562h3v4c-1.32 0.66-2.64 1.32-4 2l2 2c-0.66 0.66-1.32 1.32-2 2-0.33 0.99-0.66 1.98-1 3h6c2.02 4.29 3.28 7.19 3 12 0.33 0.33 0.66 0.66 1 1h1v5c-5.75 0.125-5.75 0.125-8-1v3c-0.33 0.33-0.66 0.66-1 1v1c-0.804 0.124-1.61 0.248-2.44 0.375-0.846 0.206-1.69 0.412-2.56 0.625-0.33 0.66-0.66 1.32-1 2-0.99 0.33-1.98 0.66-3 1-0.99 0.99-0.99 0.99-2 2-1.45-0.0928-1.45-0.0928-2.94-0.188-1.52 0.0928-1.52 0.0928-3.06 0.188-1.02 1.66-2.02 3.32-3 5-3.62 1.06-5.41 1.2-9 0-1.6-0.0442-3.21-0.0394-4.81 0-3.85 0.0451-7.4-0.203-11.2-1v-2h-3l-1 2h-2c-1.49 0.495-1.49 0.495-3 1-1.89 0.0685-3.79 0.0848-5.69 0.0625-0.994-0.00902-1.99-0.018-3.01-0.0273-1.14-0.0174-1.14-0.0174-2.3-0.0352-0.33-0.66-0.66-1.32-1-2-3.03-0.658-3.03-0.658-6-1v2h-5l-1-6h-3v4c-1.42 0.186-1.42 0.186-2.88 0.375-3.21 0.342-3.21 0.342-5.12 2.62v-3c-1.65 0.33-3.3 0.66-5 1-0.66-0.99-1.32-1.98-2-3-0.597 2.76-1 5.16-1 8-2.25 0.75-2.25 0.75-5 1-2.31-1.94-2.31-1.94-4-4-0.516 0.309-1.03 0.619-1.56 0.938-3.13 1.37-6.04 1.75-9.44 2.06l-2-1v-2c-1.21-0.186-1.21-0.186-2.44-0.375-0.846-0.206-1.69-0.412-2.56-0.625-0.33-0.66-0.66-1.32-1-2-0.562 0.383-1.12 0.766-1.7 1.16-2.3 0.84-2.3 0.84-4.59-0.102-0.81-0.535-1.62-1.07-2.45-1.62-0.879-0.566-1.76-1.13-2.66-1.71-0.853-0.568-1.71-1.14-2.59-1.72-1.37-0.88-2.75-1.76-4.12-2.62-0.641-0.405-1.28-0.81-1.94-1.23-1.96-1.16-3.94-2.16-6-3.15-4.01-1.96-7.44-4.22-10.9-7-0.33-0.99-0.66-1.98-1-3h2c0.33-0.66 0.66-1.32 1-2 0.99 0.66 1.98 1.32 3 2 2.54-0.193 2.54-0.193 5.19-0.875 0.901-0.204 1.8-0.407 2.73-0.617 0.687-0.168 1.37-0.335 2.08-0.508 0.33 0.99 0.66 1.98 1 3 0.536-0.681 1.07-1.36 1.62-2.06 2.38-1.94 2.38-1.94 5.44-1.88 2.89 0.922 4.1 1.59 5.94 3.94 0.66-0.99 1.32-1.98 2-3 0.289 0.804 0.577 1.61 0.875 2.44 0.858 2.7 0.858 2.7 3.12 3.56v-2h3c-0.99-0.66-1.98-1.32-3-2 0.66-0.33 1.32-0.66 2-1v-3h4c0.495 1.98 0.495 1.98 1 4 0.33-0.66 0.66-1.32 1-2 1.33-0.343 2.66-0.676 4-1 0.66-0.66 1.32-1.32 2-2 2.62-0.625 2.62-0.625 5-1v2h7c0.33-0.66 0.66-1.32 1-2 0.33 0.33 0.66 0.66 1 1 1.85 0.0723 3.71 0.0838 5.56 0.0625 1.52-0.0135 1.52-0.0135 3.07-0.0273 1.17-0.0174 1.17-0.0174 2.37-0.0352v2h2c0.33-1.65 0.66-3.3 1-5 0.557 0.309 1.11 0.619 1.69 0.938 2.44 1.12 4.67 1.62 7.31 2.06v1c1.89 0.196 3.79 0.382 5.69 0.562 1.06 0.104 2.11 0.209 3.2 0.316 2.96 0.115 5.27-0.0485 8.11-0.879 0.66-0.66 1.32-1.32 2-2 5.99-0.657 12.1 0.122 18 1v2c1.98 0.495 1.98 0.495 4 1 0.33-0.99 0.66-1.98 1-3h3c-0.33 1.65-0.66 3.3-1 5h2c0.33-0.66 0.66-1.32 1-2 0.33 0.33 0.66 0.66 1 1 0.99-0.66 1.98-1.32 3-2-0.33-0.66-0.66-1.32-1-2 0.66-0.66 1.32-1.32 2-2h2c0.33-0.99 0.66-1.98 1-3 0.33 0.66 0.66 1.32 1 2 0.66-0.33 1.32-0.66 2-1-0.33-0.66-0.66-1.32-1-2 0-1.94 0-1.94 1-4 2.33-1 4.67-2 7-3 1.04-2.07 1.04-2.07 1-4z" fill="#B46FB4"/>
<path transform="translate(126,361)" d="m0 0c2.31 1 2.31 1 4 2-0.516 0.598-1.03 1.2-1.56 1.81-0.474 0.722-0.949 1.44-1.44 2.19 0.495 1.49 0.495 1.49 1 3 0.99-0.33 1.98-0.66 3-1v3c1.32 0.66 2.64 1.32 4 2-0.33 0.33-0.66 0.66-1 1 1.09-0.0412 2.19-0.0825 3.31-0.125 3.69 0.125 3.69 0.125 6.69 2.12-0.99 0.33-1.98 0.66-3 1 1.32 0.33 2.64 0.66 4 1v6c0.66-0.33 1.32-0.66 2-1 0.412 1.11 0.825 2.23 1.25 3.38 1.17 2.94 1.17 2.94 3.75 4.62 3.31 1.66 3.79 4.65 5 8 0.103 0.763 0.206 1.53 0.312 2.31 0.227 0.557 0.454 1.11 0.688 1.69 2.84 1.2 2.84 1.2 6 2 1.35 0.638 2.69 1.29 4 2-0.99 0.66-1.98 1.32-3 2 3.01 3.01 5.82 2.6 10 3v4l-2 1c0.66 0.33 1.32 0.66 2 1 0.33 0.66 0.66 1.32 1 2 0.66-0.33 1.32-0.66 2-1 0.33 0.99 0.66 1.98 1 3h-2c0.33 0.66 0.66 1.32 1 2 0.04 2 0.0435 4 0 6h3v3h5c-0.33-0.66-0.66-1.32-1-2 1.98 0.495 1.98 0.495 4 1v2c0.66 0.66 1.32 1.32 2 2l-4.1 2.34c-0.876 0.501-1.75 1-2.66 1.52-1.92 1.1-3.84 2.19-5.77 3.28-4.28 2.42-8.52 4.85-12.6 7.54-8.36 5.4-8.36 5.4-12.9 5.13-2.5-0.728-4.65-1.56-6.93-2.82 0.0206-0.777 0.0412-1.55 0.0625-2.36-0.0663-2.81-0.65-4.26-2.06-6.64-0.99 0.33-1.98 0.66-3 1-2.26-0.121-2.26-0.121-4.69-0.438-0.808-0.102-1.62-0.204-2.45-0.309-0.922-0.126-0.922-0.126-1.86-0.254v-5c-0.99-0.495-0.99-0.495-2-1h2v-3c2.47-0.495 2.47-0.495 5-1-0.99-0.99-0.99-0.99-2-2-0.99 0.495-0.99 0.495-2 1v-10h-2v-2h2v-3c-0.99-0.495-0.99-0.495-2-1-0.699-1.32-1.37-2.65-2-4-1.45-1.45-3.04-1.56-5-2v-3c-1.32-0.66-2.64-1.32-4-2v-3c-0.66-0.33-1.32-0.66-2-1v4c-2-1-2-1-3-3.94-0.33-1.01-0.66-2.02-1-3.06-0.66-0.66-1.32-1.32-2-2 0.33-0.66 0.66-1.32 1-2-1.98-0.33-3.96-0.66-6-1 0.66-0.66 1.32-1.32 2-2-1.65-0.33-3.3-0.66-5-1v-3c-2.64 0.66-5.28 1.32-8 2-0.33-0.99-0.66-1.98-1-3h-2v3h-2c-1.05-3.98-0.841-6.98 0-11h-3c-0.188-2.88-0.188-2.88 0-6 0.99-0.66 1.98-1.32 3-2-0.66-0.99-1.32-1.98-2-3 6.27-0.33 12.5-0.66 19-1v-2c0.687-0.193 1.37-0.387 2.08-0.586 0.901-0.26 1.8-0.521 2.73-0.789 0.893-0.255 1.79-0.51 2.71-0.773 8.79-3.02 8.79-3.02 10.5-2.85z" fill="#CC6190"/>
<path transform="translate(149,208)" d="m0 0h3c0.669 2.79 1.34 5.58 2 8.38 0.191 0.794 0.382 1.59 0.578 2.41 0.18 0.761 0.361 1.52 0.547 2.3 0.168 0.702 0.335 1.4 0.508 2.13 0.367 1.79 0.367 1.79 0.367 3.79 0.66 0.33 1.32 0.66 2 1v4h2c0.33-0.66 0.66-1.32 1-2 0.268 0.784 0.536 1.57 0.812 2.38 1.04 2.91 1.04 2.91 4.19 4.62v3c1.42 0.433 1.42 0.433 2.88 0.875 3.12 1.12 3.12 1.12 5.12 3.12l-2 1c0.33 1.32 0.66 2.64 1 4 2.97-0.495 2.97-0.495 6-1v2h2c3 3.46 3 3.46 3 6 0.968 2.02 1.97 4.02 3 6h2c0.412 0.949 0.825 1.9 1.25 2.88 2.38 4.25 4.3 4.64 8.75 6.12 2.69 1.44 2.69 1.44 5 3v2h-2v2c1.16 0.0825 2.31 0.165 3.5 0.25 4.63 0.628 8.94 1.56 12.5 4.75 1.53 3.14 1.85 5.61 1 9-3.64 4.3-8.98 6.64-14 9-5.56 2.98-11 6.13-16.5 9.25-0.624 0.353-1.25 0.707-1.89 1.07-2.98 1.59-2.98 1.59-5.61 3.68-2.6 0.154-5.15 0.232-7.75 0.25-0.717 0.0206-1.43 0.0412-2.17 0.0625-4.62 0.0339-7.38-0.562-11.1-3.31-0.62-0.402-1.24-0.804-1.88-1.22-5.57-4.24-7.61-9.03-9.12-15.8-0.686-6.67-0.467-13.4-0.391-20.1 0.00747-1.93 0.0132-3.87 0.0172-5.8 0.0152-5.06 0.0544-10.1 0.0988-15.2 0.0411-5.18 0.0592-10.4 0.0793-15.5 0.0427-10.1 0.111-20.3 0.195-30.4z" fill="#8E7CCA"/>
<path transform="translate(421,268)" d="m0 0c0.763 0.309 1.53 0.619 2.31 0.938 1.88 0.741 3.77 1.42 5.69 2.06 0.66-0.33 1.32-0.66 2-1l3 3c0.33-0.66 0.66-1.32 1-2 0.99 1.49 0.99 1.49 2 3 0.99 0.33 1.98 0.66 3 1 0.315 9.08-3.21 14.3-9 21-0.673 0.785-1.35 1.57-2.04 2.38-8.47 9.12-19.2 14.9-30.3 20.3-9.55 4.67-18.6 10.2-27.8 15.6-3.54 2.1-7.09 4.18-10.6 6.26-3.09 1.82-6.18 3.64-9.27 5.46-0.33-0.66-0.66-1.32-1-2 0.843-2.16 1.78-4.28 2.75-6.38 6.35-14.3 8.26-27.5 3.92-42.8-1.01-4.26-1.15-8.49-0.672-12.8 1-1 1-1 4.56-1.06 1.13 0.0206 2.27 0.0412 3.44 0.0625v-2c6.29-2.43 6.29-2.43 10-1v-2c4.72-0.771 9.22-1.1 14-1 0.144 0.639 0.289 1.28 0.438 1.94 0.373 2.04 0.373 2.04 1.56 3.06 0.33-0.66 0.66-1.32 1-2 0.763-0.144 1.53-0.289 2.31-0.438 2.75-0.362 2.75-0.362 4.69-2.19 2-1.38 2-1.38 4.75-1.06 0.743 0.227 1.49 0.454 2.25 0.688-0.495-1.49-0.495-1.49-1-3 2-2 2-2 4.75-2.06 1.07 0.0206 2.14 0.0412 3.25 0.0625 1.05-0.186 2.1-0.371 3.19-0.562 2.81-0.438 2.81-0.438 5.81 0.562v-2z" fill="#CC6191"/>
<path transform="translate(36,170)" d="m0 0c1.99 2.99 2.94 5.6 4 9h3v2h2c0.33-0.66 0.66-1.32 1-2 0.99 1.49 0.99 1.49 2 3h3c0.33-0.66 0.66-1.32 1-2 3.9 0 5.54 0.479 9 2 2.66 1.08 5.28 2.09 8 3 0.33-0.66 0.66-1.32 1-2 0.66 1.65 1.32 3.3 2 5 1.32-0.33 2.64-0.66 4-1v2c0.675-0.0722 1.35-0.144 2.05-0.219 1.34-0.139 1.34-0.139 2.7-0.281 0.882-0.0928 1.76-0.186 2.67-0.281 2.58-0.219 2.58-0.219 6.58-0.219-0.66-0.66-1.32-1.32-2-2h11c0.495 1.98 0.495 1.98 1 4 2.31 0.33 4.62 0.66 7 1v-4c0.578-0.124 1.16-0.248 1.75-0.375 2.29-0.543 2.29-0.543 4.31-1.75 1.94-0.875 1.94-0.875 4.94 0.125v-2c0.598-0.289 1.2-0.577 1.81-0.875 2.38-1.17 2.38-1.17 5.19-3.12 0.495 1.49 0.495 1.49 1 3 0.33-0.33 0.66-0.66 1-1 3.06-0.161 5.06 0.0185 8 1v2c0.99-0.33 1.98-0.66 3-1 0.0496 5.16 0.0858 10.3 0.11 15.5 0.01 1.75 0.0237 3.51 0.041 5.26 0.0244 2.53 0.0356 5.05 0.0444 7.58 0.0103 0.778 0.0206 1.56 0.0313 2.36 9.19e-4 4.5-0.52 8.08-2.23 12.3h-3l-1-6c-1.49 0.495-1.49 0.495-3 1-0.33-1.65-0.66-3.3-1-5l-2.75 1.94c-3.83 2.43-5.55 3.33-10 2.62-0.742-0.186-1.48-0.371-2.25-0.562v-2c-4.95 0.495-4.95 0.495-10 1-0.66-0.99-1.32-1.98-2-3-3.31-1.38-5.99-0.824-9.44-0.125-0.927 0.183-1.85 0.366-2.81 0.555-0.909 0.188-1.82 0.376-2.75 0.57-0.895 0.177-1.79 0.353-2.71 0.535-1.5 0.305-2.99 0.646-4.48 1.03-8.47 1.32-15.7 0.0286-23.8-2.56 0.66-0.66 1.32-1.32 2-2h-4c-0.495-2.47-0.495-2.47-1-5h-8v-3c-0.33 0.99-0.66 1.98-1 3-0.99-0.33-1.98-0.66-3-1v-4c-0.381-1.89-0.823-3.76-1.31-5.62-0.244-0.962-0.487-1.92-0.738-2.91-0.8-2.78-0.8-2.78-3.95-4.46-0.341-1.97-0.341-1.97-0.293-4.35 0.00967-0.851 0.0193-1.7 0.0293-2.58 0.0251-0.889 0.0503-1.78 0.0762-2.7 0.0135-0.897 0.0271-1.79 0.041-2.72 0.0354-2.22 0.0848-4.44 0.146-6.66h2v-2z" fill="#A876BE"/>
<path transform="translate(173 48)" d="m0 0c3.57 2.08 7.16 4.14 10.7 6.2 1.19 0.681 2.37 1.36 3.56 2.04 2.25 1.29 4.5 2.58 6.75 3.87 14.2 8.17 14.2 8.17 15.5 11.9-12.5 0.203-12.5 0.203-18-1-0.33-0.66-0.66-1.32-1-2-0.759 0.107-1.52 0.214-2.3 0.324-0.994 0.12-1.99 0.24-3.01 0.363-0.986 0.128-1.97 0.255-2.99 0.387-2.7-0.0742-2.7-0.0742-4.55-1.55-0.378-0.501-0.755-1-1.14-1.52 0.33 1.65 0.66 3.3 1 5-2.64 0.33-5.28 0.66-8 1 0.33-0.99 0.66-1.98 1-3-0.394-2.64-0.394-2.64-1-5-1.65-0.33-3.3-0.66-5-1v2c-1.25 1.62-1.25 1.62-3 3h-4c-0.33-0.99-0.66-1.98-1-3-0.33 0.99-0.66 1.98-1 3-0.289-0.598-0.577-1.2-0.875-1.81-1.17-2.38-1.17-2.38-3.12-5.19-0.99 0.495-0.99 0.495-2 1v-4c-0.66-0.66-1.32-1.32-2-2v-2h-3v-2c-2.17 0.833-2.17 0.833-3 3-0.33-0.99-0.66-1.98-1-3-0.568 0.0722-1.14 0.144-1.72 0.219-7.44 0.895-14.1 1.51-21.3-1.22-0.495-1.48-0.495-1.48-1-3 0.33-0.66 0.66-1.32 1-2-5.25 0.555-5.25 0.555-10.4 1.69-0.536 0.103-1.07 0.206-1.62 0.312-0.66-0.66-1.32-1.32-2-2-0.309 0.619-0.619 1.24-0.938 1.88l-2.06 4.12h-4c-0.33 0.66-0.66 1.32-1 2-2.31-0.33-4.62-0.66-7-1v3h-2c-0.33-0.99-0.66-1.98-1-3-1.09 0.103-2.19 0.206-3.31 0.312-1.22-0.103-2.43-0.206-3.69-0.312-1.69-2.37-1.69-2.37-3-5-2.2-1.4-3.4-2-6-2-0.33 0.66-0.66 1.32-1 2-3.76 1.93-6.81 2.19-11 2v4c-0.66 0.66-1.32 1.32-2 2-0.33 0.66-0.66 1.32-1 2-1.98-0.33-3.96-0.66-6-1v-2c-0.66-0.33-1.32-0.66-2-1 11.6-15.8 28.5-28.2 48.2-31.6 31.2-3.29 52 9.22 78.3 24.6z" fill="#C85C7D"/>
<path transform="translate(70,45)" d="m0 0c2.22 1.59 4.16 3.16 6.06 5.12 1.89 2.1 1.89 2.1 4.94 2.88 0.66 0.33 1.32 0.66 2 1 0.33-0.66 0.66-1.32 1-2 0.99 0.99 1.98 1.98 3 3-0.33 0.66-0.66 1.32-1 2h2v-3c1.05 0.0206 2.1 0.0412 3.19 0.0625 4.5-0.042 4.5-0.042 8.81-1.06 1.32-1.88 1.32-1.88 2-4 0.33-0.66 0.66-1.32 1-2 1.08 0.278 1.08 0.278 2.19 0.562 2.98 0.463 4.9 0.109 7.81-0.562h4c0.495 2.48 0.495 2.48 1 5 7.36 0.637 14.6 1.12 22 1 2.53 0 4.54 0.361 7 1 2.28 2.89 3 4.3 3 8 0.66-0.66 1.32-1.32 2-2 0.124 0.639 0.248 1.28 0.375 1.94 0.309 1.02 0.309 1.02 0.625 2.06 0.66 0.33 1.32 0.66 2 1 0.99 0.66 1.98 1.32 3 2-0.33 0.66-0.66 1.32-1 2h4c0.33-1.65 0.66-3.3 1-5 2.31-0.688 2.31-0.688 5-1 1.81 1.19 1.81 1.19 3 3v4c0.66 0.33 1.32 0.66 2 1v1c1.32-0.66 2.64-1.32 4-2v-3c0.544 0.34 1.09 0.681 1.65 1.03 2.96 1.22 4.83 0.91 7.98 0.469 2.91-0.406 2.91-0.406 5.38-0.5l2 2c2.57 0.648 2.57 0.648 5 1v1h-13v2c-1.28 0.29-1.28 0.29-2.59 0.586-1.1 0.26-2.21 0.521-3.35 0.789-1.65 0.383-1.65 0.383-3.34 0.773-0.898 0.281-1.8 0.562-2.72 0.852-0.33 0.66-0.66 1.32-1 2-4.3 2.56-8.04 3.5-13 4-0.33 0.99-0.66 1.98-1 3h-2v-5c0.99-0.33 1.98-0.66 3-1h-3-4c-1.33-1.33-2.67-2.67-4-4-3.02-1.11-4.96-0.977-8 0v-2h-2c-0.33 0.66-0.66 1.32-1 2v-2c-0.495 0.495-0.495 0.495-1 1v1c-1.6 0.0542-3.21 0.0929-4.81 0.125-0.893 0.0232-1.79 0.0464-2.71 0.0703-2.48-0.195-2.48-0.195-5.48-2.2v-4h-2v4c-3.86 2.51-6.69 3.15-11.2 3-5.28-0.181-9.59 0.825-14.6 2.44-2.21 0.559-2.21 0.559-4.21-0.441 0.495 1.98 0.495 1.98 1 4h-2c-0.495-1.98-0.495-1.98-1-4-0.433 0.66-0.866 1.32-1.31 2-0.835 0.99-0.835 0.99-1.69 2h-3c-0.66-0.66-1.32-1.32-2-2-0.598-0.289-1.2-0.578-1.81-0.875-2.69-1.39-4.84-3.21-7.19-5.12-0.66-0.33-1.32-0.66-2-1v2c-0.99-0.33-1.98-0.66-3-1-3.04-0.96-5.03-1.03-8.12-0.25-0.683 0.16-1.37 0.32-2.07 0.484-2.18 0.728-2.18 0.728-3.8 3.77v-3h-2v-2c-1.98 0.66-3.96 1.32-6 2v9c-2.75 0.688-2.75 0.688-6 1-2.37-1.44-2.37-1.44-4-3 1.75-9.53 4.84-19.4 11-27h2v2c2.97 0.495 2.97 0.495 6 1v-4h3v-4c1.11-0.124 2.23-0.248 3.38-0.375 3.66-0.272 3.66-0.272 5.62-2.62 0.66 0.33 1.32 0.66 2 1 0.66-1.32 1.32-2.64 2-4z" fill="#CD6088"/>
<path transform="translate(53,256)" d="m0 0c2.4 2.4 2.34 3.33 2.62 6.62 0.0748 0.817 0.15 1.63 0.227 2.48 0.0735 0.94 0.0735 0.94 0.148 1.9 3.51 1.6 6.14 2.22 10 2v-3h11c0.495 1.49 0.495 1.49 1 3 1.65-0.33 3.3-0.66 5-1v-2h5c-0.165 1.01-0.33 2.02-0.5 3.06-0.47 3.7-0.576 7.21-0.5 10.9 1.05-0.0619 2.1-0.124 3.19-0.188 4.08 0.201 5.46 1.07 8.81 3.19 2.71 0.252 2.71 0.252 5 0v-3h3c-0.495-1.49-0.495-1.49-1-3h2l1 2h9v-2c1.58 0.0928 1.58 0.0928 3.19 0.188 4.02-0.197 5.57-0.967 8.81-3.19h2c-0.0206-0.784-0.0412-1.57-0.0625-2.38 0.0625-2.62 0.0625-2.62 1.06-4.62 0.356-1.66 0.692-3.33 1-5h2c0.702 11.1 1.2 22.1 0.688 33.2-0.0347 0.85-0.0694 1.7-0.105 2.58-0.332 5.92-0.332 5.92-2.58 8.17-0.643 2.07-0.643 2.07-1 4-1.65 0.33-3.3 0.66-5 1-0.33 0.99-0.66 1.98-1 3-0.66-0.33-1.32-0.66-2-1-0.414-2.07-0.414-2.07-0.625-4.56-0.0748-0.826-0.15-1.65-0.227-2.5-0.049-0.638-0.098-1.28-0.148-1.93h-2c-0.33-0.99-0.66-1.98-1-3-1.7 0.0619-1.7 0.0619-3.44 0.125-4.71 0.0168-9.03-0.949-13.6-2.12v6c-3.67 1.18-7.17 1.07-11 1 0.66-1.65 1.32-3.3 2-5-1.05 0.0116-2.1 0.0232-3.18 0.0352-1.38 0.00938-2.76 0.0185-4.14 0.0273-0.69 0.00838-1.38 0.0168-2.09 0.0254-3.14 0.0152-5.59-0.086-8.6-1.09h-3c0.33-1.98 0.66-3.96 1-6-0.66 0.66-1.32 1.32-2 2v4c-2.15 0.194-4.29 0.38-6.44 0.562-1.79 0.157-1.79 0.157-3.62 0.316-0.971 0.04-1.94 0.0799-2.94 0.121-1-1-1-1-1.06-3.56 0.0206-0.804 0.0413-1.61 0.0625-2.44-0.66-0.33-1.32-0.66-2-1v-3c-2.97-0.66-5.94-1.32-9-2-0.144 1.15-0.289 2.31-0.438 3.5-0.521 4.17-1.04 8.33-1.56 12.5h-6c0.0412 1.01 0.0825 2.02 0.125 3.06-0.131 4.12-0.858 7.06-2.12 10.9h-2c-1.28-3.85-1.37-7.61-1.56-11.6-0.041-0.837-0.082-1.67-0.124-2.54-0.262-5.78-0.445-11.6-0.501-17.3-0.013-0.711-0.0259-1.42-0.0393-2.15-0.00674-3.69 0.124-5.19 2.23-8.35 0.33 0.66 0.66 1.32 1 2 0.693-2.34 0.996-4.17 0.938-6.62 0.0625-2.38 0.0625-2.38 2.06-4.38 0.167-3.08 0.167-3.08 0-6h7c0.66-1.65 1.32-3.3 2-5 1.32 0.33 2.64 0.66 4 1v-2z" fill="#7E79C9"/>
<path transform="translate(380,245)" d="m0 0h4v3c3.05 1.01 3.05 1.01 6 0 0.99 1.32 1.98 2.64 3 4 0.33-0.66 0.66-1.32 1-2-0.495-1.49-0.495-1.49-1-3 2.44 0.375 2.44 0.375 5 1 0.495 0.99 0.495 0.99 1 2 0.33-1.65 0.66-3.3 1-5h2c0.495 1.98 0.495 1.98 1 4h2v-3c1.32-0.33 2.64-0.66 4-1v2c0.859-0.277 0.859-0.277 1.73-0.559 3.71-0.723 6.66 0.538 10.3 1.56v3c0.99 0.33 1.98 0.66 3 1v2c3.3 0.99 6.6 1.98 10 3 0.33-0.66 0.66-1.32 1-2 0.577 0.309 1.15 0.619 1.75 0.938 2.1 0.992 4 1.54 6.25 2.06l2 1c2.07 8.26-0.341 14.5-4 22l-2 2c-1.21-3.62-0.543-4.64 1-8-0.639-0.124-1.28-0.248-1.94-0.375-0.681-0.206-1.36-0.413-2.06-0.625l-1-2h-3c-4.27 0-6.42-0.611-10-3-1.89 0.367-1.89 0.367-4 1-2 0.0385-4 0.0454-6 0-0.33 0.66-0.66 1.32-1 2v-2c-1.98 0.66-3.96 1.32-6 2v3c-2.31 0.33-4.62 0.66-7 1v2c-3.47 0.495-3.47 0.495-7 1v2h-2c-0.33-1.65-0.66-3.3-1-5-1.96-0.0808-3.92-0.139-5.88-0.188-1.09-0.0348-2.18-0.0696-3.3-0.105-1.4 0.145-1.4 0.145-2.82 0.293-0.66 0.99-1.32 1.98-2 3-1.36-0.278-1.36-0.278-2.75-0.562-2.93-0.395-4.51-0.384-7.25 0.562v2c-3.47 0.495-3.47 0.495-7 1-0.33 2.64-0.66 5.28-1 8-1.79-2.19-3.02-4.04-4.06-6.69-0.706-2.47-0.706-2.47-2.94-3.31-1.01-1.66-2.01-3.33-3-5-2.23-3-3.87-4.91-7-7v-2c-0.701-0.248-1.4-0.495-2.12-0.75-3.24-1.41-5.95-3.28-8.88-5.25-0.99-0.33-1.98-0.66-3-1-0.33-0.66-0.66-1.32-1-2-0.99-0.33-1.98-0.66-3-1 0.33-1.65 0.66-3.3 1-5 1.56-0.366 3.12-0.718 4.69-1.06 0.87-0.197 1.74-0.394 2.64-0.598 2.87-0.365 4.91-0.187 7.68 0.66 0.33 0.66 0.66 1.32 1 2 2.33-0.959 2.33-0.959 4-4 2.12-0.688 2.12-0.688 4-1 0.99 1.49 0.99 1.49 2 3h4v-3c4.45-0.495 4.45-0.495 9-1v2c1.95 0.278 1.95 0.278 3.94 0.562 0.731 0.104 1.46 0.209 2.21 0.316 0.915 0.0599 0.915 0.0599 1.85 0.121 0.33-0.33 0.66-0.66 1-1v-1c0.957-0.0909 0.957-0.0909 1.93-0.184 0.826-0.0838 1.65-0.168 2.5-0.254 0.824-0.0812 1.65-0.162 2.5-0.246 2.05-0.106 2.05-0.106 3.07-1.32z" fill="#C7659C"/>
<path transform="translate(35,191)" d="m0 0c4.51 4.51 4.51 4.51 5.25 8.56 0.15 0.764 0.299 1.53 0.453 2.32 0.297 2.12 0.297 2.12 0.297 5.12 0.66 0.66 1.32 1.32 2 2v-5c0.371 0.639 0.742 1.28 1.12 1.94 1.76 2.37 1.76 2.37 4.94 2.56 0.969 0.165 1.94 0.33 2.94 0.5 0.464 0.99 0.464 0.99 0.938 2 0.351 0.66 0.701 1.32 1.06 2 3.56 0.819 3.56 0.819 7 1-1.98 0.99-1.98 0.99-4 2 13.6 2.64 13.6 2.64 27 0h3c3.33-0.519 6.65-1.09 9.97-1.66 3.03-0.34 3.03-0.34 6.03 0.66v4c1.26-0.392 2.52-0.784 3.81-1.19 2.21-0.566 2.21-0.566 4.19-0.812 2 1.38 2 1.38 3 3 0.99-0.495 0.99-0.495 2-1v2c1.32-0.66 2.64-1.32 4-2 0.33 0.33 0.66 0.66 1 1 0.784-0.66 1.57-1.32 2.38-2 2.62-2 2.62-2 4.62-2 0.495 2.47 0.495 2.47 1 5 0.33-0.66 0.66-1.32 1-2 1.49 0.495 1.49 0.495 3 1 0.546 6.22 1.07 12.4 1.25 18.7 0.0258 0.788 0.0516 1.58 0.0781 2.39-0.108 0.636-0.217 1.27-0.328 1.93-0.99 0.66-1.98 1.32-3 2-0.66 0.99-1.32 1.98-2 3 0.33 0.33 0.66 0.66 1 1 1.12 1.88 1.12 1.88 2 4-0.33 0.99-0.66 1.98-1 3-1.49-0.495-1.49-0.495-3-1v-2c-1.98-0.33-3.96-0.66-6-1v-2c1.32-0.66 2.64-1.32 4-2-2.31-0.66-4.62-1.32-7-2-0.0825 0.784-0.165 1.57-0.25 2.38-0.75 2.62-0.75 2.62-2.5 4-2.75 0.763-4.53 0.381-7.25-0.375-0.33-1.65-0.66-3.3-1-5-2.23-0.0271-4.46-0.0465-6.69-0.0625-1.24-0.0116-2.48-0.0232-3.76-0.0352-3.01 0.0829-5.63 0.389-8.55 1.1v-3c-0.99-0.495-0.99-0.495-2-1l-1 2v-3h-2c-0.66 0.99-1.32 1.98-2 3-3 0.312-3 0.312-6 0l-2-2c0.66-1.65 1.32-3.3 2-5-0.33 0.33-0.66 0.66-1 1-0.949-0.0206-1.9-0.0412-2.88-0.0625-3.29-0.214-3.29-0.214-6.12 2.06-0.33-1.98-0.66-3.96-1-6-2.97 0.495-2.97 0.495-6 1-0.124-0.804-0.248-1.61-0.375-2.44-0.206-0.846-0.412-1.69-0.625-2.56-0.66-0.33-1.32-0.66-2-1-0.33-0.99-0.66-1.98-1-3v2h-2c0.348 1.98 0.348 1.98 1 4 0.66 0.33 1.32 0.66 2 1v2c-4.88 1-4.88 1-6 1-0.33 0.66-0.66 1.32-1 2h-3c0.186 0.619 0.371 1.24 0.562 1.88 0.438 2.12 0.438 2.12-0.562 4.12-2.07 0.414-2.07 0.414-4.56 0.625-0.826 0.0748-1.65 0.15-2.5 0.227-0.638 0.049-1.28 0.098-1.93 0.148-0.33-2.64-0.66-5.28-1-8h-1v-48z" fill="#9D7DC9"/>
<path transform="translate(211,310)" d="m0 0c0.33 0.99 0.66 1.98 1 3 0.99 0.33 1.98 0.66 3 1 0.34 0.99 0.34 0.99 0.688 2 1.11 2.18 1.11 2.18 3.21 2.48 2.03 0.242 4.06 0.384 6.1 0.516-0.99 0.66-1.98 1.32-3 2 1.83 1.13 1.83 1.13 4 2 0.99-0.33 1.98-0.66 3-1 2.16-0.0949 4.33-0.13 6.5-0.125 1.14-0.00258 2.29-0.00516 3.47-0.00781 3.03 0.133 3.03 0.133 6.03 1.13 1.5 0.274 3 0.545 4.5 0.812 3.09 0.669 4.24 0.94 6.56 3.19 0.938 2 0.938 2 0.938 4 1.84 0.772 1.84 0.772 4 1 1.77-1.35 1.77-1.35 3-3 0.743 0.619 1.49 1.24 2.25 1.88 2.24 1.73 4.19 2.99 6.75 4.12-0.0326 2.02-0.0651 4.04-0.0977 6.05-0.0288 2.03-0.0288 2.03 1.1 3.95h-2c0.66 0.99 1.32 1.98 2 3 0.125 2.69 0.125 2.69 0 5h-2c0.195 1.95 0.195 1.95 1 4 1.32 0.684 2.66 1.35 4 2 1.25 2.12 1.25 2.12 2 4 0.66-0.33 1.32-0.66 2-1v2c1.65-0.33 3.3-0.66 5-1v6h-5c0.33 0.99 0.66 1.98 1 3-0.276 2.01-0.602 4.01-1 6h-3c0.99 1.65 1.98 3.3 3 5 0.33-0.66 0.66-1.32 1-2v3h-2c-0.352 0.902-0.352 0.902-0.712 1.82-2.48 4.19-7.39 5.82-11.6 7.99-1.43 0.772-1.43 0.772-2.88 1.56-0.922 0.481-1.84 0.963-2.79 1.46-0.841 0.441-1.68 0.881-2.55 1.34-2.9 0.982-4.56 0.678-7.46-0.167-0.33-0.99-0.66-1.98-1-3l-2-2c0.0586-2.31 0.0586-2.31 0.438-5 0.635-3.63 0.635-3.63-0.438-7 0.606-2.02 1.27-4.02 2-6-1.32-0.33-2.64-0.66-4-1 0.33-1.65 0.66-3.3 1-5 0.99-0.33 1.98-0.66 3-1-1.65-0.33-3.3-0.66-5-1-0.495-3.47-0.495-3.47-1-7l2 1c1.02-4.1 1.02-4.1 0-8-1.34 0.0174-1.34 0.0174-2.7 0.0352-1.76 0.0135-1.76 0.0135-3.55 0.0273-1.74 0.0174-1.74 0.0174-3.52 0.0352-2.64-0.0798-4.73-0.311-7.23-1.1v-3c-0.624-0.235-1.25-0.469-1.89-0.711-2.71-1.66-3-2.9-3.86-5.91-0.364-1.23-0.364-1.23-0.734-2.48-0.17-0.626-0.34-1.25-0.516-1.9h-2c-0.248-1.03-0.495-2.06-0.75-3.12-1.18-3.92-2.41-6.82-5.25-9.88-5.45-1.96-11.4-2.25-17.2-2.66-1.81-0.344-1.81-0.344-3.81-2.34 4.32-4.88 10.2-10 17-10z" fill="#A975BD"/>
<path transform="translate(45,103)" d="m0 0c1.62-0.027 3.25-0.0464 4.88-0.0625 1.36-0.0174 1.36-0.0174 2.74-0.0352 2.38 0.0977 2.38 0.0977 4.38 1.1v2c0.598-0.495 1.2-0.99 1.81-1.5 2.19-1.5 2.19-1.5 5.19-1.5 1.76-0.0309 1.76-0.0309 3.56-0.0625 3.44 0.0625 3.44 0.0625 5.44 1.06 1.55-0.0865 3.09-0.24 4.62-0.438 0.817-0.102 1.63-0.204 2.48-0.309 0.626-0.0838 1.25-0.168 1.9-0.254v3c-2.47-0.495-2.47-0.495-5-1v3c1.48-0.114 2.96-0.241 4.44-0.375 0.824-0.0696 1.65-0.139 2.5-0.211 0.682-0.137 1.36-0.273 2.07-0.414 0.33-0.66 0.66-1.32 1-2 0.66 0.33 1.32 0.66 2 1v-2c0.908 0.165 1.82 0.33 2.75 0.5 5.39 0.789 10.8 0.58 16.2 0.5-0.33 2.31-0.66 4.62-1 7 0.33-0.66 0.66-1.32 1-2 2.56-0.625 2.56-0.625 5-1v3c0.99 0.495 0.99 0.495 2 1v-3h2v-2c2.57-1.62 3.68-2.04 6.75-1.62 0.742 0.206 1.48 0.412 2.25 0.625v2h3c0.33-0.99 0.66-1.98 1-3 0.495 1.48 0.495 1.48 1 3 0.66-0.66 1.32-1.32 2-2 3.62 0.375 3.62 0.375 7 1-0.66 0.33-1.32 0.66-2 1v3c1.32 0.33 2.64 0.66 4 1v2h-2c-0.0825 1.26-0.165 2.52-0.25 3.81-0.485 3.94-0.485 3.94-2.62 5.94-0.701 0.412-1.4 0.825-2.12 1.25-1.04 1.3-2.05 2.63-3 4-1.32-0.33-2.64-0.66-4-1-0.33 0.66-0.66 1.32-1 2-2 0.679-4 1.35-6 2-0.66 0.66-1.32 1.32-2 2-2.69 0.27-5.29 0.0874-8 0v2h-6v-2c-0.976 0.0116-1.95 0.0232-2.96 0.0352-1.27 0.00902-2.54 0.018-3.86 0.0273-1.9 0.0174-1.9 0.0174-3.83 0.0352-3.36-0.0977-3.36-0.0977-6.36-1.1-0.99 0.33-1.98 0.66-3 1-0.474-0.495-0.949-0.99-1.44-1.5-1.32-1.62-1.32-1.62-2.56-1.5-0.33 0.66-0.66 1.32-1 2-0.722-0.186-1.44-0.371-2.19-0.562-2.94-0.457-4.95-0.173-7.81 0.562v-2c-3.12 1.31-3.12 1.31-5 4-0.454-0.619-0.908-1.24-1.38-1.88-3.81-3.08-7.86-3.43-12.6-4.12-0.33 0.66-0.66 1.32-1 2-0.99 0.33-1.98 0.66-3 1-0.33 0.66-0.66 1.32-1 2h-2v3h-3v-4h-3c-0.66-2.64-1.32-5.28-2-8h-1c-0.7-6.68-1.32-13.3-1-20 0.66-0.66 1.32-1.32 2-2 0.66 1.32 1.32 2.64 2 4 0.413-0.495 0.825-0.99 1.25-1.5 1.75-1.5 1.75-1.5 5.75-1.5v-2z" fill="#C7659C"/>
<path transform="translate(137,317)" d="m0 0h1c0.33 11.2 0.66 22.4 1 34-1.49 0.495-1.49 0.495-3 1v2c-1.13 0.454-2.27 0.908-3.44 1.38-3.61 1.2-3.61 1.2-4.56 3.62-2.4 1.29-4.78 2.48-7.25 3.62-1 0.487-1 0.487-2.03 0.984-3.71 1.74-6.53 2.83-10.7 2.39v2c-11.3 3.77-26.9 1.53-38-2v-2l-2.19-0.293c-3.22-0.809-5.14-2.07-7.81-4.02-0.869-0.632-1.74-1.26-2.63-1.91-10.5-7.88-10.5-7.88-13.4-13.8-0.66-0.33-1.32-0.66-2-1-0.731-2.31-1.4-4.65-2-7h-2c-2.79-1.9-3.04-3.19-3.81-6.56-0.0619-1.13-0.124-2.27-0.188-3.44 0.66-0.66 1.32-1.32 2-2 0.934 0.951 0.934 0.951 1.89 1.92 4.24 2.83 7.93 2.97 12.9 3.33 1.33 0.116 1.33 0.116 2.68 0.234 2.17 0.188 4.34 0.354 6.51 0.516v6c0.536-0.33 1.07-0.66 1.62-1 2.91-1.23 5.24-1.14 8.38-1-0.33 1.32-0.66 2.64-1 4 0.969-0.186 1.94-0.371 2.94-0.562 1.52-0.217 1.52-0.217 3.06-0.438 0.33 0.33 0.66 0.66 1 1 1.91 0 3.82-0.00366 5.72-0.0312 3.48 0.0477 6.84 0.54 10.3 1.03v-3h6v-2h5c-0.66 0.33-1.32 0.66-2 1 0.99 1.49 0.99 1.49 2 3 2.98-0.992 4.65-1.97 7-4 0.495-1.49 0.495-1.49 1-3 1.32 0.33 2.64 0.66 4 1v2c1.26-0.165 2.52-0.33 3.81-0.5 2.45-0.322 4.7-0.5 7.19-0.5-0.33 0.66-0.66 1.32-1 2 1.48 0.495 1.48 0.495 3 1-0.33-1.65-0.66-3.3-1-5 0.99 0.33 1.98 0.66 3 1v2h6c0.33-5.61 0.66-11.2 1-17z" fill="#5562B7"/>
<path transform="translate(230,96)" d="m0 0v7c1.21-0.0174 1.21-0.0174 2.45-0.0352 1.07-0.00902 2.14-0.018 3.24-0.0273 1.06-0.0116 2.11-0.0232 3.2-0.0352 3.11 0.0977 3.11 0.0977 5.72 0.637 3.24 0.626 5.98 0.0618 9.21-0.48 2.61-0.0701 3.92 0.705 6.18 1.94h2.56c2.44 0 2.44 0 5.44 2v-2c4.56 1.72 8.66 3.98 12.9 6.37 2.41 1.27 4.78 2.37 7.28 3.44 5.53 2.42 10.7 5.41 15.9 8.45 0.961 0.554 1.92 1.11 2.91 1.68 2.34 1.35 4.69 2.71 7.03 4.07l-2 1c-5.18-2.27-10.1-5.23-15-8v2c-2.31-0.33-4.62-0.66-7-1-0.495 2.47-0.495 2.47-1 5-3.96-0.66-7.92-1.32-12-2-0.33 0.66-0.66 1.32-1 2v-5h-10c0.33-0.66 0.66-1.32 1-2-1.49-0.495-1.49-0.495-3-1v3h-10v-2h-9c-0.495 2.47-0.495 2.47-1 5-1.49 0.495-1.49 0.495-3 1-0.733 2.02-0.733 2.02-1 4-5.75 1-5.75 1-8 1v-5c-4.52-0.215-7.75 0.554-12 2-2.88 0.125-2.88 0.125-5 0 0.495 2.47 0.495 2.47 1 5-0.949-0.206-1.9-0.412-2.88-0.625l-3.12-0.375c-0.66 0.66-1.32 1.32-2 2-2.31 0.414-2.31 0.414-5 0.625-0.887 0.0748-1.77 0.15-2.69 0.227-1.44 0.0921-2.87 0.148-4.31 0.148-1.38 0.155-2.75 0.323-4.12 0.5l-3.88 0.5v-2h-9v12h-2c-0.33-1.65-0.66-3.3-1-5-2.47 0.495-2.47 0.495-5 1-0.33-0.66-0.66-1.32-1-2-0.151 3.63-0.151 3.63 1 7h-2c-0.66 2.97-1.32 5.94-2 9-2-2-2-2-2.5-4.56-0.165-0.804-0.33-1.61-0.5-2.44-0.66-0.33-1.32-0.66-2-1 0.115-1.58 0.242-3.17 0.375-4.75 0.104-1.32 0.104-1.32 0.211-2.67 0.421-2.62 0.95-4.37 2.41-6.58 1.49-0.495 1.49-0.495 3-1h-3v-3c0.99 0.33 1.98 0.66 3 1 0.289-1.11 0.577-2.23 0.875-3.38 1.12-3.62 1.12-3.62 3.12-5.62h1c0.619-0.186 1.24-0.371 1.88-0.562 2.12-0.438 2.12-0.438 5.12 0.562-0.495-2.47-0.495-2.47-1-5 3 1 3 1 5 3 0.66 0.33 1.32 0.66 2 1 0.33-4.29 0.66-8.58 1-13h7c0.33-0.99 0.66-1.98 1-3h2c0.33-0.66 0.66-1.32 1-2 0.66 1.98 1.32 3.96 2 6 1.32-0.33 2.64-0.66 4-1v2c1.32-0.33 2.64-0.66 4-1 0.33-1.98 0.66-3.96 1-6 3.22-1.07 3.9-0.871 7 0h3v2c1.98-0.33 3.96-0.66 6-1-0.66-2.64-1.32-5.28-2-8 2.46-1.23 4.28-1.07 7-1z" fill="#7D78C6"/>
<path transform="translate(309,249)" d="m0 0h2v2c0.639 0.248 1.28 0.495 1.94 0.75 4.06 1.66 8.06 3.45 12.1 5.25v2c0.732 0.108 1.46 0.217 2.22 0.328 6.63 1.6 12.3 6.7 16.8 11.7 0.465 0.508 0.931 1.02 1.41 1.54 3.59 4.06 3.59 4.06 3.59 7.46 0.99 0.33 1.98 0.66 3 1 7.82 12.7 10.1 28.4 6.94 42.9-1.43 5.04-3.34 9.86-5.38 14.7-0.432 1.04-0.432 1.04-0.873 2.1-1.65 3.74-3.04 6.36-6.69 8.34h-2c-0.33-0.99-0.66-1.98-1-3 0.33-0.66 0.66-1.32 1-2h-2c-0.967-3.12-0.99-5.52-0.562-8.75 0.153-1.2 0.153-1.2 0.309-2.42 0.0838-0.603 0.168-1.21 0.254-1.83h-2c0.0348-0.615 0.0696-1.23 0.105-1.86 0.0406-1.21 0.0406-1.21 0.082-2.45 0.0348-0.801 0.0696-1.6 0.105-2.43-0.362-2.79-1.28-3.39-3.29-5.26-0.248-1.18-0.495-2.35-0.75-3.56-0.619-1.7-0.619-1.7-1.25-3.44-3.51-1.54-3.51-1.54-7-2-0.124-0.639-0.248-1.28-0.375-1.94-0.206-0.681-0.413-1.36-0.625-2.06-0.66-0.33-1.32-0.66-2-1v-6h2c-0.66-2.97-1.32-5.94-2-9-3.46 0.495-3.46 0.495-7 1 0.33 0.99 0.66 1.98 1 3-0.99 0.495-0.99 0.495-2 1v-5h-5c-0.33-0.66-0.66-1.32-1-2-2.31-0.731-4.65-1.4-7-2 0.875-5.75 0.875-5.75 2-8-1.65-0.33-3.3-0.66-5-1 0.33-2.31 0.66-4.62 1-7h2c-0.33-1.32-0.66-2.64-1-4h-2c0.206-0.577 0.413-1.15 0.625-1.75 0.462-2.77-0.196-3.9-1.62-6.25 2.54-2.97 5.49-4.36 9-6v-3z" fill="#7171C3"/>
<path transform="translate(299,258)" d="m0 0c0.99 0.66 1.98 1.32 3 2v3c0.947 2.16 0.947 2.16 3 4-0.33 0.99-0.66 1.98-1 3h-2c-0.33 2.31-0.66 4.62-1 7h6c-0.66 2.97-1.32 5.94-2 9 2.31 0.66 4.62 1.32 7 2v2h5c0.33 0.99 0.66 1.98 1 3v-2c2.31-0.33 4.62-0.66 7-1 1.8 3.83 2.36 6.77 2 11-1 2.38-1 2.38-2 4 0.99 0.33 1.98 0.66 3 1v3c1.11 0.268 2.23 0.536 3.38 0.812 3.62 1.19 3.62 1.19 5.62 4.19 0.125 2.69 0.125 2.69 0 5 0.99 0.33 1.98 0.66 3 1 0.841 4.02 1.05 7.02 0 11h2v13h2v6c-1.79 1.03-3.58 2.05-5.38 3.06-0.998 0.568-2 1.14-3.02 1.72-0.859 0.401-1.72 0.802-2.6 1.21-0.99-0.495-0.99-0.495-2-1-0.625-2.06-0.625-2.06-1-4-2.31-0.33-4.62-0.66-7-1 0.33 0.99 0.66 1.98 1 3-1.89 1.89-4.57 1.18-7.09 1.23-1.91-0.23-1.91-0.23-3.91-2.23h2c0.151-3.63 0.151-3.63-1-7-2.02-0.652-2.02-0.652-4-1 0.186-1.07 0.371-2.14 0.562-3.25 0.382-3.28 0.37-4.75-0.562-7.75v-4h-3c0.66-2.97 1.32-5.94 2-9-3.46-0.495-3.46-0.495-7-1 0.99-0.495 0.99-0.495 2-1v-3h-7v-3c-0.317-1.67-0.652-3.34-1-5-0.153-0.944-0.307-1.89-0.465-2.86-0.156-0.954-0.312-1.91-0.473-2.89-0.153-0.964-0.307-1.93-0.465-2.92-0.197-0.768-0.394-1.54-0.598-2.33-0.66-0.33-1.32-0.66-2-1v-9c-0.99-0.33-1.98-0.66-3-1-0.625-1.82-0.625-1.82-1-4.12-0.588-3.13-1.3-5.85-2.62-8.75-1.38-3.12-1.38-3.12-1.38-6.12 1.76-0.866 1.76-0.866 3.56-1.75 3.9-1.95 7.67-4.05 11.4-6.25z" fill="#8D7BCA"/>
<path transform="translate(35,152)" d="m0 0c3.37 0.547 5.08 1.05 8 3 0.33-0.99 0.66-1.98 1-3v3c0.99-0.99 1.98-1.98 3-3 1.12 4.75 1.12 4.75 0 7h7v2c0.638-0.0116 1.28-0.0232 1.93-0.0352 0.826-0.00902 1.65-0.018 2.5-0.0273 0.824-0.0116 1.65-0.0232 2.5-0.0352 2.07 0.0977 2.07 0.0977 3.07 1.1 0.392-0.516 0.784-1.03 1.19-1.56 1.81-1.44 1.81-1.44 4.25-1.19 1.27 0.371 1.27 0.371 2.56 0.75 0.701 0.144 1.4 0.289 2.12 0.438 1.88 0.562 1.88 0.562 4.88 2.56 2.28 0.454 2.28 0.454 4.69 0.625 0.808 0.0748 1.62 0.15 2.45 0.227 0.615 0.049 1.23 0.098 1.86 0.148v-2c3.46-0.495 3.46-0.495 7-1 0.66 1.98 1.32 3.96 2 6 2.79 0.419 2.79 0.419 6 0 2.88-2.38 2.88-2.38 5-5 0.99 0.99 0.99 0.99 2 2 0.99 0.66 1.98 1.32 3 2 0.66-1.65 1.32-3.3 2-5h5v-2c3 1 3 1 5.38 3.12 2.47 2.2 2.47 2.2 5.44 1.62 0.722-0.248 1.44-0.495 2.19-0.75 0.99 1.49 0.99 1.49 2 3 1.32-0.33 2.64-0.66 4-1-0.33 5.94-0.66 11.9-1 18-4.08 0-7.12-0.807-11-2-0.33 0.66-0.66 1.32-1 2-0.99-0.99-0.99-0.99-2-2-0.66 0.66-1.32 1.32-2 2h-4v2c-1.7 0.186-1.7 0.186-3.44 0.375-1.18 0.206-2.35 0.412-3.56 0.625-0.495 0.99-0.495 0.99-1 2-1.48-0.495-1.48-0.495-3-1v4c-2.31-0.33-4.62-0.66-7-1-0.495-1.98-0.495-1.98-1-4-2.97 0.495-2.97 0.495-6 1 0.33 0.66 0.66 1.32 1 2h-18v-2c-1.32 0.66-2.64 1.32-4 2-0.588-0.959-0.588-0.959-1.19-1.94-2.26-2.57-3.49-2.59-6.81-3.06-0.846-0.351-1.69-0.701-2.56-1.06-3.75-1.44-7.29-0.896-11.2-0.438-0.799 0.0928-1.6 0.186-2.42 0.281-0.603 0.0722-1.21 0.144-1.83 0.219-0.33-0.66-0.66-1.32-1-2h-2v-2h-2c-0.33 1.32-0.66 2.64-1 4-0.289-1.07-0.578-2.15-0.875-3.25-0.853-2.84-1.69-5.19-3.12-7.75h-1c-1.18-6.83-0.745-13.1 0-20z" fill="#B46FB4"/>
<path transform="translate(194 194)" d="m0 0c3.3 1.31 6.01 2.86 8.98 4.78 6.21 3.95 12.6 7.51 19.1 11 3.12 1.7 5.96 3.32 8.73 5.56 3.15 2.5 6.52 4.1 10.1 5.82 24.8 12.2 24.8 12.2 28.3 21.6 1.87 7.15 1.62 12.9-2 19.6-4.78 6.39-4.78 6.39-8 8-2.33 0.0402-4.67 0.0432-7 0-0.0206-0.598-0.0412-1.2-0.0625-1.81-0.823-2.61-0.823-2.61-4.44-3.69-3.5-1.5-3.5-1.5-4.44-3.69-0.0206-0.598-0.0412-1.2-0.0625-1.81h-2l-2-2c-1.32-0.697-2.65-1.37-4-2 0.33-2.31 0.66-4.62 1-7l-2 1c-2.33 0.0402-4.67 0.0432-7 0v-3c-2.94-2.21-2.94-2.21-6-4 0.33-1.32 0.66-2.64 1-4-0.99-0.33-1.98-0.66-3-1-1.39-1.96-2.73-3.96-4-6l-1-1c-0.66-0.66-1.32-1.32-2-2-1.49-0.495-1.49-0.495-3-1-1.06-1.94-1.06-1.94-2-4l-2-2h2v-2c-1.18 0.0928-1.18 0.0928-2.38 0.188-0.866-0.0619-1.73-0.124-2.62-0.188-0.66-0.99-1.32-1.98-2-3-0.99-0.66-1.98-1.32-3-2 0.33-0.99 0.66-1.98 1-3-0.99-0.33-1.98-0.66-3-1v-4c-1.32-0.66-2.64-1.32-4-2h2c-0.669-3.11-0.669-3.11-3.06-4.19-0.639-0.268-1.28-0.536-1.94-0.812 0.375-2.44 0.375-2.44 1-5 2-1 2-1 4.77-0.281z" fill="#CC6191"/>
<path transform="translate(160,190)" d="m0 0c0.0619 1.22 0.124 2.43 0.188 3.69 0.43 3.46 0.844 4.35 3.12 7.25 2.47 1.9 3.72 2.53 6.69 3.06 1.47 2.94 1 5.74 1 9 0.33 0.99 0.66 1.98 1 3h2c1.26 2.91 2 4.8 2 8h2v3h4c0.33 0.66 0.66 1.32 1 2 0.99 0.66 1.98 1.32 3 2h-4c0.554 0.147 1.11 0.294 1.68 0.445 2.25 0.696 4.25 1.42 6.32 2.55 1.93 3.69 2.24 6.88 2 11h3c0.33 0.66 0.66 1.32 1 2 0.99 0.33 1.98 0.66 3 1v2l2 1v4c1.66 0.676 3.33 1.34 5 2 0.663 0.264 1.33 0.529 2.01 0.801 0.699 0.272 1.4 0.544 2.12 0.824 0.663 0.26 1.33 0.521 2.01 0.789 2.02 0.736 2.02 0.736 4.87 0.586v2c-1.49 0.495-1.49 0.495-3 1 0.619 0.124 1.24 0.248 1.88 0.375 2.12 0.625 2.12 0.625 4.12 2.62 0.0825 0.639 0.165 1.28 0.25 1.94 0.612 2.31 0.612 2.31 3.12 3.69 4.78 1.81 9.58 2.61 14.6 3.38-1.49 0.495-1.49 0.495-3 1 0.33 0.66 0.66 1.32 1 2 0.66-0.33 1.32-0.66 2-1 0.33 1.32 0.66 2.64 1 4-3.14 2.53-6.38 4.3-10 6.06-1.03 0.507-2.06 1.01-3.12 1.54-0.949 0.463-1.9 0.926-2.88 1.4-1.33 0.665-2.67 1.33-4 2-0.0632-0.615-0.126-1.23-0.191-1.86-0.385-2.54-0.846-4.75-1.81-7.14-4.18-2.57-8.19-3.33-13-4-0.99-0.495-0.99-0.495-2-1v-2h2c-1.4-2.81-3.11-2.92-6-4-1.33-0.667-2.67-1.33-4-2-0.99-0.33-1.98-0.66-3-1-1.19-3.56-1.19-3.56-2-7h-2c-0.33 0.66-0.66 1.32-1 2-1.76-4.64-3.47-9.28-5-14h-2v-2c-0.99 0.66-1.98 1.32-3 2-2.19-0.375-2.19-0.375-4-1-0.144-0.804-0.289-1.61-0.438-2.44-0.692-3.15-0.958-3.15-3.56-4.94-2-1.62-2-1.62-3-4.62-0.99-0.66-1.98-1.32-3-2-0.66-0.99-1.32-1.98-2-3h-2c-3.63-7.25-6-15.9-6-24-0.66-0.33-1.32-0.66-2-1 0.371-2.09 0.773-4.17 1.19-6.25 0.22-1.16 0.441-2.32 0.668-3.52 1.38-3.89 3.66-7.23 8.14-7.23z" fill="#B56FB4"/>
<path transform="translate(183,350)" d="m0 0 1 2c-0.33 0.66-0.66 1.32-1 2 0.99-0.33 1.98-0.66 3-1 3.4 0.901 5.5 1.5 8 4h4c0.33 1.98 0.66 3.96 1 6 2.97 0.495 2.97 0.495 6 1 0.495 1.49 0.495 1.49 1 3-0.33 0.66-0.66 1.32-1 2h5c0.495 2.48 0.495 2.48 1 5h6c0.495 1.49 0.495 1.49 1 3 2.31 0.33 4.62 0.66 7 1v15h7c0.688 1.56 0.688 1.56 1 4-0.985 2.34-1.98 4.67-3 7 0.33 0.99 0.66 1.98 1 3h2c0.33 0.99 0.66 1.98 1 3-4.38 5.14-9.87 8.24-16 11h-3v-2c-2.47 0.495-2.47 0.495-5 1-0.495 1.49-0.495 1.49-1 3-1.12-3.75-1.12-3.75 0-6h-2c-0.845-3.38-1.11-5.67 0-9h5v-2c-0.557-0.268-1.11-0.536-1.69-0.812-0.763-0.392-1.53-0.784-2.31-1.19-0.908-0.454-1.81-0.908-2.75-1.38-0.743-0.536-1.49-1.07-2.25-1.62v-4h-4v-3h-4v-2c-1.49-0.495-1.49-0.495-3-1 0.99-0.66 1.98-1.32 3-2v-4c-1.49 0.495-1.49 0.495-3 1-0.66-0.66-1.32-1.32-2-2-0.99 0.495-0.99 0.495-2 1v-5c-2.47-0.99-2.47-0.99-5-2v-2h-2c0.33-1.32 0.66-2.64 1-4-1.98-0.66-3.96-1.32-6-2v-2c-0.66-0.33-1.32-0.66-2-1-0.33 0.66-0.66 1.32-1 2-0.66-2.31-1.32-4.62-2-7 0.66-0.66 1.32-1.32 2-2 0.243-2.44 0.243-2.44 0.125-5.12-0.018-0.91-0.0361-1.82-0.0547-2.76-0.0232-0.699-0.0464-1.4-0.0703-2.12 3.36-1.68 6.36-0.635 10 0zm26 65 1 2z" fill="#BB67A5"/>
<path transform="translate(149,208)" d="m0 0h3c0.669 2.79 1.34 5.58 2 8.38 0.191 0.794 0.382 1.59 0.578 2.41 0.18 0.761 0.361 1.52 0.547 2.3 0.168 0.702 0.335 1.4 0.508 2.13 0.367 1.79 0.367 1.79 0.367 3.79 0.66 0.33 1.32 0.66 2 1v4h2c0.33-0.66 0.66-1.32 1-2 0.268 0.784 0.536 1.57 0.812 2.38 1.04 2.91 1.04 2.91 4.19 4.62v3c1.42 0.433 1.42 0.433 2.88 0.875 3.12 1.12 3.12 1.12 5.12 3.12l-2 1c0.33 1.32 0.66 2.64 1 4 2.97-0.495 2.97-0.495 6-1v2h2c3 3.46 3 3.46 3 6 0.968 2.02 1.97 4.02 3 6h2c0.412 0.949 0.825 1.9 1.25 2.88 2.38 4.25 4.3 4.64 8.75 6.12 2.69 1.44 2.69 1.44 5 3v2h-2v2c1.16 0.0825 2.31 0.165 3.5 0.25 4.63 0.628 8.94 1.56 12.5 4.75 1.53 3.14 1.85 5.61 1 9-2.28 2.69-4.93 4.3-8 6-1.09 0.619-2.19 1.24-3.31 1.88-2.69 1.12-2.69 1.12-5.69 1.12-0.186-1.61-0.186-1.61-0.375-3.25-0.586-4.23-0.586-4.23-2.62-7.75-2.29-1.23-4.55-2.09-7-3 0.0928-1.89 0.0928-1.89 0.188-3.81 0.0488-3.36 0.0488-3.36-1.69-6.19-0.743-0.495-0.743-0.495-1.5-1 0.495-1.49 0.495-1.49 1-3-0.99-0.495-0.99-0.495-2-1-0.625-2.56-0.625-2.56-1-5-0.99 0.33-1.98 0.66-3 1v-2h-5v-2c-1.49-0.495-1.49-0.495-3-1-1.67-0.66-3.34-1.33-5-2 0.33-0.66 0.66-1.32 1-2l-4-4v4c-2.26 1.6-4.53 2.77-7 4-0.99-0.66-1.98-1.32-3-2-6.67 11.5-4.22 29.2-4 42h-2c-2.53-5.89-3.43-10.5-3.34-16.9-6.57e-4 -1.27-6.57e-4 -1.27-0.00133-2.57 0.00207-2.78 0.0253-5.56 0.0489-8.34 0.0056-1.94 0.00987-3.88 0.0129-5.82 0.0114-5.08 0.0408-10.2 0.0741-15.2 0.0308-5.2 0.0444-10.4 0.0595-15.6 0.0321-10.2 0.0832-20.4 0.146-30.5z" fill="#9E7ECA"/>
<path transform="translate(170,206)" d="m0 0c0.33 1.32 0.66 2.64 1 4 0.887-0.227 1.77-0.454 2.69-0.688 3.9-0.368 5.29 0.285 8.31 2.69v2h6c0.248 0.598 0.495 1.2 0.75 1.81 1.42 2.49 2.98 3.5 5.25 5.19 0.33 0.99 0.66 1.98 1 3 0.66-0.33 1.32-0.66 2-1 0.33 1.65 0.66 3.3 1 5 0.99-0.33 1.98-0.66 3-1 3.86 2.5 5.76 5 8 9v2h5c0.66 1.32 1.32 2.64 2 4 0.33-0.99 0.66-1.98 1-3 0.66 1.32 1.32 2.64 2 4l-1 1c0.866 0.722 1.73 1.44 2.62 2.19 0.545 0.458 1.09 0.915 1.65 1.39 1.1 0.914 2.22 1.81 3.35 2.7 3.3 2.61 5.42 5.01 7.37 8.73 0.66 0.99 1.32 1.98 2 3 0.33 0.66 0.66 1.32 1 2h2c0.495 2.97 0.495 2.97 1 6-0.99 0.495-0.99 0.495-2 1v2c1.98 0.99 1.98 0.99 4 2h-2v2c1.98 0.99 1.98 0.99 4 2-2.31 0.625-2.31 0.625-5 1-1.49-0.99-1.49-0.99-3-2v-2c-0.664-0.182-1.33-0.364-2.01-0.551-9.67-2.75-9.67-2.75-13-5.45-0.673-1.66-1.34-3.33-2-5-2.02-0.733-2.02-0.733-4-1-0.33-0.66-0.66-1.32-1-2h4c-2.65-1.09-5.27-2.08-8-2.94-3.02-1.07-5.45-2.11-8-4.06v-4c-1.49-0.495-1.49-0.495-3-1 0.33-0.66 0.66-1.32 1-2-1.32-0.33-2.64-0.66-4-1v-2c-1.49 0.495-1.49 0.495-3 1l-1-1c0.0206-0.908 0.0412-1.82 0.0625-2.75-0.0631-3.28-0.678-5.31-2.06-8.25-2.31-0.33-4.62-0.66-7-1 0-2 0-2 1-3-0.66-0.33-1.32-0.66-2-1 0.33-0.66 0.66-1.32 1-2h-4v-3h-2c-1.76-3.09-2-4.23-2-8h-2c-1.6-3.51-2.22-6.14-2-10z" fill="#BA68A6"/>
<path transform="translate(312,253)" d="m0 0c4.97 0.497 8.64 1.55 13 4v2c0.732 0.108 1.46 0.217 2.22 0.328 6.63 1.6 12.3 6.7 16.8 11.7 0.465 0.508 0.931 1.02 1.41 1.54 3.59 4.06 3.59 4.06 3.59 7.46 0.99 0.33 1.98 0.66 3 1 7.82 12.7 10.1 28.4 6.94 42.9-2.15 7.64-5.33 15.1-8.94 22.1-0.99 0.495-0.99 0.495-2 1v-8c-0.99-0.495-0.99-0.495-2-1v-9h2c0.0909-1.45 0.0909-1.45 0.184-2.92 0.0838-1.26 0.168-2.53 0.254-3.83 0.0812-1.25 0.162-2.51 0.246-3.8 0.242-2.64 0.559-4.93 1.32-7.45h-2c-0.66-1.98-1.32-3.96-2-6l-2 1c-1.14-4.58-1.14-4.58-0.375-6.84 0.538-3.09-0.593-4.68-2.06-7.41-0.473-0.892-0.946-1.78-1.43-2.7-0.373-0.675-0.745-1.35-1.13-2.05-1.65 0.66-3.3 1.32-5 2-1.27-2.28-2.02-4.1-2.5-6.69-0.248-1.14-0.248-1.14-0.5-2.31-0.66-0.33-1.32-0.66-2-1v-2c-1.32-0.33-2.64-0.66-4-1v-4c-1.32-0.33-2.64-0.66-4-1-0.33-1.32-0.66-2.64-1-4v4c-0.99-0.33-1.98-0.66-3-1v-3c-0.33-0.99-0.66-1.98-1-3-0.348-1.66-0.684-3.33-1-5-0.99-0.33-1.98-0.66-3-1 0.99-0.99 1.98-1.98 3-3-0.99-0.33-1.98-0.66-3-1v-1z" fill="#5562B7"/>
<path transform="translate(183,76)" d="m0 0c1.25 2.06 1.25 2.06 2 4-1.32 0.33-2.64 0.66-4 1-0.33 2.31-0.66 4.62-1 7-3.72 0.201-4.77 0.152-8-2-2.15 0.308-2.15 0.308-4 1 0.371 1.18 0.743 2.35 1.12 3.56 1.15 4.47 0.477 7.17-1.12 11.4-1.32 0.33-2.64 0.66-4 1-0.33 4.29-0.66 8.58-1 13-1.98 0.495-1.98 0.495-4 1-0.33 1.32-0.66 2.64-1 4h-2c0.206 0.908 0.412 1.82 0.625 2.75 0.388 3.36 0.179 4.49-1.62 7.25h-2c-0.66-1.65-1.32-3.3-2-5h-5c0.371 1.03 0.743 2.06 1.12 3.12 0.95 4.21 0.578 6-1.12 9.88-0.33-1.32-0.66-2.64-1-4h-2v6h-1c-0.33 1.98-0.66 3.96-1 6 0.957-0.217 0.957-0.217 1.93-0.438 0.826-0.186 1.65-0.371 2.5-0.562 0.824-0.186 1.65-0.371 2.5-0.562 2.07-0.438 2.07-0.438 3.07-0.438 1.49-0.99 1.49-0.99 3-2 0.81 2.91 1.22 4.46 0.0625 7.31-0.351 0.557-0.701 1.11-1.06 1.69-0.99-0.33-1.98-0.66-3-1-0.33 1.32-0.66 2.64-1 4-1.48-0.449-2.96-0.91-4.44-1.38-1.24-0.383-1.24-0.383-2.5-0.773-2.07-0.852-2.07-0.852-3.07-2.85-0.0971-1.85-0.131-3.71-0.133-5.57-0.00129-1.13-0.00258-2.25-0.00391-3.41 0.00387-1.18 0.00773-2.37 0.0117-3.58-0.0058-1.73-0.0058-1.73-0.0117-3.5 0.00727-6.4 0.284-12.6 1.14-18.9h2c0.124-1.05 0.248-2.1 0.375-3.19 0.536-3.27 1.26-5.82 2.62-8.81h2c0.217-0.897 0.217-0.897 0.438-1.81 1.22-4.76 2.92-6.88 6.56-10.2 0.722-0.351 1.44-0.701 2.19-1.06 2-0.807 2-0.807 2.81-3 1-1.94 1-1.94 3.12-2.69 0.928-0.124 0.928-0.124 1.88-0.25v-2c2.91-2.04 4.4-3 8-3 0.33-0.99 0.66-1.98 1-3 6.94-1.42 6.94-1.42 10 0z" fill="#5562B7"/>
<path transform="translate(362,300)" d="m0 0c1.32 0.33 2.64 0.66 4 1v3c5.44 0.495 5.44 0.495 11 1v2c1.03-0.269 1.03-0.269 2.08-0.543 0.901-0.213 1.8-0.425 2.73-0.645 1.34-0.331 1.34-0.331 2.71-0.668 1.23-0.0715 1.23-0.0715 2.48-0.145 1.54 1.4 1.54 1.4 3 3 2.17 0.611 2.17 0.611 4.5 0.75 0.773 0.0773 1.55 0.155 2.34 0.234 2.34 0.133 2.34 0.133 5.16-0.984v-2c2.97 0.33 5.94 0.66 9 1v5c-1.09 0.559-2.19 1.12-3.31 1.7-12.5 6.47-24.7 13.4-36.8 20.6-2.72 1.61-5.44 3.21-8.16 4.8-3.9 2.29-7.8 4.59-11.7 6.88-0.33-0.66-0.66-1.32-1-2 0.843-2.16 1.78-4.28 2.75-6.38 4.34-9.75 6.5-19 6.94-29.7 0.315-2.97 1.07-5.21 2.31-7.91z" fill="#CD5F87"/>
<path transform="translate(153,213)" d="m0 0c3.01 1.51 3.61 4.03 5 7h3v2h3v3c0.928 0.268 1.86 0.536 2.81 0.812 3.04 1.13 4.08 1.88 6.19 4.19 0.99 0.33 1.98 0.66 3 1v3h2c0.66 2.31 1.32 4.62 2 7 0.619 0.124 1.24 0.248 1.88 0.375 2.12 0.625 2.12 0.625 4.12 2.62v4c1.65 0.33 3.3 0.66 5 1v2h2l2 2h2c0.227 0.619 0.454 1.24 0.688 1.88 1.69 2.74 3.3 3.18 6.31 4.12v2c0.99 0.33 1.98 0.66 3 1v5c0.763-0.0412 1.53-0.0825 2.31-0.125 2.69 0.125 2.69 0.125 5.69 2.12v3c1.65 1.36 3.31 2.69 5 4v2c1.65 0.66 3.3 1.32 5 2-0.33 1.65-0.66 3.3-1 5 1.65 0.33 3.3 0.66 5 1-2.37 2.62-4.9 4.33-8 6h-2c-0.0632-0.615-0.126-1.23-0.191-1.86-0.385-2.54-0.846-4.75-1.81-7.14-4.18-2.57-8.19-3.33-13-4-0.99-0.495-0.99-0.495-2-1v-2h2c-1.4-2.81-3.11-2.92-6-4-1.33-0.667-2.67-1.33-4-2-0.99-0.33-1.98-0.66-3-1-1.19-3.56-1.19-3.56-2-7h-2l-1 2c-1.76-4.64-3.47-9.28-5-14h-2v-2c-0.99 0.66-1.98 1.32-3 2-2.19-0.375-2.19-0.375-4-1-0.144-0.804-0.289-1.61-0.438-2.44-0.692-3.15-0.958-3.15-3.56-4.94-2-1.62-2-1.62-3-4.62-0.99-0.66-1.98-1.32-3-2-0.66-0.99-1.32-1.98-2-3h-2c-2.76-6.15-5.42-12.1-5-19z" fill="#A876BE"/>
<path transform="translate(173,278)" d="m0 0c0.33 0.66 0.66 1.32 1 2 1.98-0.66 3.96-1.32 6-2v6h4v8c0.619 0.144 1.24 0.289 1.88 0.438 2.12 0.562 2.12 0.562 4.12 1.56 0.625 2.06 0.625 2.06 1 4h3c0.812 2.69 0.812 2.69 1 6-1.64 2.19-2.89 3.37-5 5-0.587 0.543-1.17 1.09-1.78 1.64-4.88 4-9.25 4.9-15.5 4.92-0.686 0.00234-1.37 0.00467-2.08 0.00708-4.35-0.143-7.16-1.02-10.7-3.57 0.99-0.495 0.99-0.495 2-1v-7c-0.99 0.33-1.98 0.66-3 1-1.95-5.5-2.27-9.26-1-15 0.99-0.66 1.98-1.32 3-2 1.19-2.05 1.19-2.05 2-4h3c0.33-1.65 0.66-3.3 1-5 2.97 0.495 2.97 0.495 6 1v-2z" fill="#7F7AC9"/>
<path transform="translate(233,218)" d="m0 0c5.84 0.917 10.2 3.71 15.3 6.62 0.912 0.509 1.82 1.02 2.76 1.54 15 8.57 15 8.57 17.9 16.3 1.9 7.26 1.41 12.9-2 19.6-0.66 0.99-1.32 1.98-2 3h-2c-0.66-0.99-1.32-1.98-2-3l-2 1c-0.289-0.969-0.577-1.94-0.875-2.94-0.767-3.17-0.767-3.17-3.12-4.06-0.66-0.99-1.32-1.98-2-3-0.981-1.02-1.98-2.02-3-3 0.33-0.66 0.66-1.32 1-2-3.04 1.67-3.04 1.67-4 4-1.32-0.66-2.64-1.32-4-2 0.66-0.99 1.32-1.98 2-3-0.308-2.15-0.308-2.15-1-4h-4c-0.289-0.639-0.577-1.28-0.875-1.94-0.953-2.21-0.953-2.21-3.12-3.06-0.667-1.33-1.33-2.67-2-4-0.516-0.495-1.03-0.99-1.56-1.5-1.79-1.87-2.21-2.93-2.44-5.5 0.75-2.69 0.75-2.69 2-5 0.99-0.33 1.98-0.66 3-1-0.66-0.99-1.32-1.98-2-3z" fill="#CD6088"/>
<path transform="translate(306,287)" d="m0 0h5c0.33 0.99 0.66 1.98 1 3h5c0.33 0.99 0.66 1.98 1 3v-2c3.46-0.495 3.46-0.495 7-1 1.8 3.83 2.36 6.77 2 11-1 2.38-1 2.38-2 4 0.99 0.33 1.98 0.66 3 1v3c1.11 0.268 2.23 0.536 3.38 0.812 3.62 1.19 3.62 1.19 5.62 4.19 0.125 2.69 0.125 2.69 0 5 0.99 0.33 1.98 0.66 3 1 0.841 4.02 1.05 7.02 0 11h2v13h2v6c-2.48 0.495-2.48 0.495-5 1-0.934-3.01-1.04-3.87 0-7-0.389-2.14-0.389-2.14-1-4-2.97 0.495-2.97 0.495-6 1-0.33-0.99-0.66-1.98-1-3 1.44-2.69 1.44-2.69 3-5h-3c-0.124-0.784-0.248-1.57-0.375-2.38-0.416-2.77-0.416-2.77-2.62-4.62-0.398-1.99-0.738-3.99-1-6-1.49-0.495-1.49-0.495-3-1 0.99-2.97 1.98-5.94 3-9-1.32-0.33-2.64-0.66-4-1-0.66-0.99-1.32-1.98-2-3 0.99-1.32 1.98-2.64 3-4-2.64 0.33-5.28 0.66-8 1-0.66-1.32-1.32-2.64-2-4 0.99-0.33 1.98-0.66 3-1 0.33-0.66 0.66-1.32 1-2-3.34-0.0743-5.8-0.0655-9 1v-3h-2c-0.33-2.31-0.66-4.62-1-7z" fill="#7E79C9"/>
<path transform="translate(299,258)" d="m0 0c0.99 0.66 1.98 1.32 3 2v3c0.947 2.16 0.947 2.16 3 4-0.33 0.99-0.66 1.98-1 3h-2c-0.33 2.31-0.66 4.62-1 7h6c-1.75 7.75-1.75 7.75-4 10-0.289-0.743-0.577-1.49-0.875-2.25-0.371-0.908-0.743-1.81-1.12-2.75-0.268-0.743-0.536-1.49-0.812-2.25-1.1-2.03-1.1-2.03-3.81-2.5-0.784-0.0825-1.57-0.165-2.38-0.25-0.0619-0.928-0.124-1.86-0.188-2.81-0.482-3.37-0.482-3.37-3.31-4.88-0.825-0.433-1.65-0.866-2.5-1.31-0.33-0.99-0.66-1.98-1-3 3.96-2.31 7.92-4.62 12-7z" fill="#7E79C9"/>
<path transform="translate(208,69)" d="m0 0c2.97 1.65 5.94 3.3 9 5v3c-2.64 0.33-5.28 0.66-8 1v1h-7l2-2c-4-0.904-7.93-1.26-12-1.52-1.99-0.477-1.99-0.477-3.99-3.48 9.9-0.495 9.9-0.495 20-1v-2z" fill="#535FB1"/>
<path transform="translate(220,85)" d="m0 0h8v7c-3.63 0.66-7.26 1.32-11 2-2-4-2-4-2-8 1.32 0.33 2.64 0.66 4 1 0.33-0.66 0.66-1.32 1-2z" fill="#7F7ACA"/>
<path transform="translate(355,332)" d="m0 0c0.99 0.33 1.98 0.66 3 1v4c0.99-0.33 1.98-0.66 3-1 0.66 0.33 1.32 0.66 2 1v2c-1.95 1.28-3.96 2.48-6 3.62-1.67 0.947-1.67 0.947-3.38 1.91-0.866 0.482-1.73 0.964-2.62 1.46-0.33-0.66-0.66-1.32-1-2 0.732-2.07 1.56-4.11 2.44-6.12 0.473-1.1 0.946-2.19 1.43-3.32 0.373-0.843 0.745-1.69 1.13-2.55z" fill="#CB5E7F"/>
<path transform="translate(399,179)" d="m0 0c11.1 3.08 19.7 9.18 28 17-3.6 0-4.6-0.887-7.5-2.94-2.59-1.82-4.48-3.06-7.5-4.06v-2c-0.562-0.276-1.12-0.552-1.7-0.836-2.38-1.21-4.71-2.49-7.05-3.79-0.799-0.446-1.6-0.892-2.42-1.35-0.603-0.338-1.21-0.675-1.83-1.02v-1z"/>
<path transform="translate(281,115)" d="m0 0c0.557 0.681 0.557 0.681 1.12 1.38 2.42 2.1 4.83 2.75 7.88 3.62-2.2 2.53-3.71 3.4-7 4-1.11 0.278-1.11 0.278-2.25 0.562-0.577 0.144-1.15 0.289-1.75 0.438-0.687-2.49-1-4.38-1-7h2c0.33-0.99 0.66-1.98 1-3z" fill="#8D7BCA"/>
<path transform="translate(314,130)" d="m0 0c5.93 2.22 11.3 5.38 16.9 8.45 1.9 1.05 3.8 2.1 5.7 3.14 1.2 0.667 2.41 1.34 3.61 2 1.09 0.605 2.19 1.21 3.32 1.83 2.51 1.57 2.51 1.57 3.51 3.57-4.64-1.38-8.52-3.3-12.7-5.75-1.23-0.719-2.46-1.44-3.68-2.15-0.607-0.354-1.21-0.709-1.84-1.07-3.5-2-7.09-3.85-10.7-5.7-2.11-1.32-2.11-1.32-4.11-4.32z"/>
<path transform="translate(42,371)" d="m0 0c1.65 0.33 3.3 0.66 5 1v3h2c0.33-0.66 0.66-1.32 1-2h3v8c-2.31-0.66-4.62-1.32-7-2v-6h-5c0.33-0.66 0.66-1.32 1-2z" fill="#CD5F87"/>
<path transform="translate(186,300)" d="m0 0c-1 1-1 1-4.06 1.06-0.969-0.0206-1.94-0.0412-2.94-0.0625v3c-1.98 0.33-3.96 0.66-6 1-1-3-1-3-1-6 1.77-0.222 3.54-0.427 5.31-0.625 0.986-0.116 1.97-0.232 2.99-0.352 2.7-0.0234 2.7-0.0234 5.7 1.98z" fill="#7272C4"/>
<path transform="translate(178,126)" d="m0 0c1.1 3.29 0.8 4.71 0 8-1.65 0.33-3.3 0.66-5 1-0.66-2.31-1.32-4.62-2-7 2.31-0.66 4.62-1.32 7-2z" fill="#7272C4"/>
<path transform="translate(245,352)" d="m0 0c0.99 0.33 1.98 0.66 3 1 0.81 2.91 1.22 4.46 0.0625 7.31-0.526 0.835-0.526 0.835-1.06 1.69-0.33-0.66-0.66-1.32-1-2-1.98 0.99-1.98 0.99-4 2-0.369-6.52-0.369-6.52 1.5-8.94 0.495-0.351 0.99-0.701 1.5-1.06z" fill="#B172B8"/>
<path transform="translate(209,186)" d="m0 0c0.33 0.66 0.66 1.32 1 2h2v2c1.98 0.66 3.96 1.32 6 2v3c-4.06-1.23-7.43-2.72-11-5-0.66-0.33-1.32-0.66-2-1v-2c1.32-0.33 2.64-0.66 4-1z" fill="#A876BE"/>
<path transform="translate(205,402)" d="m0 0c2.57 1.08 4.67 2.44 7 4v2h-6v-2h-2c-0.33 0.66-0.66 1.32-1 2v-5c0.66-0.33 1.32-0.66 2-1z" fill="#C266A0"/>
<path transform="translate(173,278)" d="m0 0 1 2c0.99 0.33 1.98 0.66 3 1v2c-3.94 1.31-6.12 0.243-10-1v-3c2.97 0.495 2.97 0.495 6 1v-2z" fill="#857ACA"/>
</svg>
